<svg version="1.1" xmlns="http://www.w3.org/2000/svg" xmlns:xlink="http://www.w3.org/1999/xlink" x="0px" y="0px" viewBox="0 0 50 50" width="50px" height="50px" enable-background="new 0 0 50 50" preserveAspectRatio="none">
<g>
	<path fill="#FFFFFF" d="M12.5,27.3c4.5,0,7.2-3.8,6.4-9.7c-0.8-6.1-4.7-10.9-9.2-11.1C5,6.4,2,10.9,2.8,17C3.6,23,8,27.2,12.5,27.3
		z"/>
	<path fill="#FFFFFF" d="M12.5,37.7c-1.4-1.2-2.5-2.3-2.5-4.4c0-1.1,0.5-2.3,0.9-3.3c-0.6,0-1.1,0-1.7,0c-3.9,0-7-1.4-9.2-3.6V40
		c2.7-1.4,5.8-2.3,9.4-2.3C10.5,37.7,11.4,37.7,12.5,37.7z"/>
	<path fill="#FFFFFF" d="M50,12.3V3.9C50,1.8,48.2,0,46.1,0H3.9C1.8,0,0,1.8,0,3.9v4.8c3-3,7.3-5,12.2-4.8c4.4,0,16.9,0,16.9,0
		l-3.7,3.9h-4.4c3.1,1.7,4.8,5.5,4.8,9.5c0,3.8-2,6.7-5,9.1c-3,2.2-3.4,3.1-3.4,5c0,1.6,3.4,3.9,5,5.2c5.5,4.2,6.6,6.7,6.4,12
		c0,0.5-0.2,0.9-0.2,1.4h17.5c2.2,0,3.9-1.8,3.9-3.9V16.3h-7.8v7.8h-3.9v-7.8h-7.8v-3.9h7.8V4.5h3.9v7.8H50z"/>
	<path fill="#FFFFFF" d="M23.3,47.5c-0.6-2.8-3.6-4.5-7.3-7c-1.2-0.5-2.8-0.8-4.4-0.8c-5.2,0-9.7,2.5-11.6,5.8v0.6
		C0,48.2,1.8,50,3.9,50h19.5c0-0.2,0-0.5,0-0.6C23.4,48.8,23.4,48.1,23.3,47.5z"/>
</g>
</svg>
