<svg version="1.1" xmlns="http://www.w3.org/2000/svg" xmlns:xlink="http://www.w3.org/1999/xlink" x="0px" y="0px" viewBox="0 0 50 50" width="50px" height="50px" enable-background="new 0 0 50 50" preserveAspectRatio="none">
<g>
	<g>
		<path fill="#FFFFFF" d="M41.7,16.7c0,2.2-0.3,4.4-1.1,5.8L28.6,47.8c-0.3,0.6-0.8,1.4-1.4,1.7C26.4,49.7,25.8,50,25,50
			s-1.4-0.3-2.2-0.6c-0.6-0.3-1.1-1.1-1.4-1.7L9.4,22.5c-0.8-1.4-1.1-3.6-1.1-5.8c0-4.7,1.7-8.6,4.7-11.9S20.3,0,25,0
			s8.6,1.7,11.9,4.7C40.3,7.8,41.7,11.9,41.7,16.7z M30.8,22.5c1.7-1.7,2.5-3.6,2.5-5.8s-0.8-4.4-2.5-5.8c-1.7-1.4-3.6-2.5-5.8-2.5
			s-4.4,0.8-5.8,2.5c-1.4,1.7-2.5,3.6-2.5,5.8s0.8,4.4,2.5,5.8c1.7,1.4,3.6,2.5,5.8,2.5S29.4,24.2,30.8,22.5z"/>
	</g>
</g>
</svg>
