<svg version="1.1" xmlns="http://www.w3.org/2000/svg" xmlns:xlink="http://www.w3.org/1999/xlink" x="0px" y="0px" viewBox="0 0 50 50" width="50px" height="50px" enable-background="new 0 0 50 50" preserveAspectRatio="none">
<g>
	<g>
		<path fill="#FFFFFF" d="M23.9,17.1l6.8,6.8c0.5,0,1.1-0.2,1.6-0.2c0.9,0,2,0.2,2.9,0.5l0,0c3.9,0.9,8.2-0.2,11.3-3.2
			c3.4-3.4,4.3-8.4,2.7-12.7l-6.1,6.1c-2,2-5.2,2-7.3,0c-2-2-2-5.2,0-7.3L42,1c-4.3-1.6-9.3-0.7-12.7,2.9c-3.2,3.2-4.1,7.5-3.2,11.3
			L23.9,17.1z"/>
		<path fill="#FFFFFF" d="M22.5,35c-0.2-1.1-0.2-2,0-3.2L15.7,25L1.9,38.8c-2.5,2.5-2.5,6.6,0,9.1s6.6,2.5,9.1,0l11.8-11.6
			C22.7,35.9,22.5,35.4,22.5,35z M8.7,45.6c-1.1,1.1-3.2,1.1-4.3,0s-1.1-3.2,0-4.3s3.2-1.1,4.3,0S9.8,44.3,8.7,45.6z"/>
	</g>
	<g>
		<path fill="#FFFFFF" d="M29.5,27.7L13.9,12.1L13,8c0-0.5-0.5-0.7-0.7-0.9L5,2.8C4.6,2.6,3.7,2.6,3.2,3L1.9,4.4
			c-0.5,0.7-0.7,1.4-0.2,2l4.3,7c0.2,0.5,0.5,0.7,0.9,0.7l4.1,0.9l15.6,15.6c-1.1,2.3-0.7,5,1.4,7l10.2,10.2c2.5,2.5,6.3,2.5,8.8,0
			c2.5-2.5,2.5-6.3,0-8.8L36.8,28.9C34.7,27,31.8,26.8,29.5,27.7z"/>
	</g>
</g>
</svg>
