<svg version="1.1" xmlns="http://www.w3.org/2000/svg" xmlns:xlink="http://www.w3.org/1999/xlink" x="0px" y="0px" viewBox="0 0 50 50" width="50px" height="50px" enable-background="new 0 0 50 50" preserveAspectRatio="none">
<path fill="#FFFFFF" d="M40.6,31c-2.7,0-5.2,1.1-6.9,3.1L18,26.4c0-0.6,0.2-1.1,0.2-1.5c0-0.6,0-1-0.2-1.5l15.7-7.5
	c1.7,1.9,4.2,3.1,6.9,3.1c5,0,9.2-4,9.2-9.2s-4-9.2-9.2-9.2s-9.2,4-9.2,9.2c0,0.6,0,1,0.2,1.5l-15.7,7.5c-1.7-1.9-4.2-3.1-6.9-3.1
	c-5,0-9,4.2-9,9.2s4,9.2,9.2,9.2c2.7,0,5.2-1.1,6.9-3.1l15.7,7.7c0,0.6-0.2,1.1-0.2,1.5c0,5,4,9.2,9.2,9.2s9.2-4,9.2-9.2
	S45.8,31,40.6,31z"/>
</svg>
