<svg version="1.1" xmlns="http://www.w3.org/2000/svg" xmlns:xlink="http://www.w3.org/1999/xlink" x="0px" y="0px" viewBox="0 0 50 50" width="50px" height="50px" enable-background="new 0 0 50 50" preserveAspectRatio="none">
<path fill="#FFFFFF" d="M48.5,20.1h-4.2c-0.5-1.8-1.2-3.5-2.2-5.2l3-3c0.7-0.7,0.7-1.7,0-2.2l-4.8-4.8c-0.7-0.7-1.7-0.7-2.2,0l-3,3
	c-1.5-1-3.3-1.7-5-2.2V1.5c0-0.8-0.7-1.5-1.7-1.5h-6.7c-1,0-1.7,0.7-1.7,1.5v4.2c-1.8,0.5-3.5,1.2-5,2.2l-3-3
	c-0.7-0.7-1.7-0.7-2.2,0L5,9.7c-0.7,0.7-0.7,1.7,0,2.2l3,3c-0.8,1.5-1.7,3.2-2.2,5H1.7C0.8,20.1,0,20.7,0,21.6v6.9
	c0,0.8,0.7,1.5,1.5,1.5h4.2C6.4,31.8,7,33.4,8,35.1L5,38c-0.7,0.7-0.7,1.7,0,2.2l4.8,5c0.7,0.7,1.7,0.7,2.2,0l3-3
	c1.5,1,3.3,1.7,5,2.2v4.2c0,0.8,0.7,1.5,1.5,1.5h6.9c0.8,0,1.5-0.7,1.5-1.5v-4.2c1.8-0.5,3.5-1.2,5.2-2.2l2.8,2.8
	c0.7,0.7,1.7,0.7,2.2,0l4.8-4.8c0.7-0.7,0.7-1.7,0-2.2l-2.7-2.8c1-1.5,1.7-3.3,2.2-5.2h4c0.8,0,1.5-0.7,1.5-1.5v-6.9
	C50.1,20.7,49.3,20.1,48.5,20.1z M25.1,32.6c-4.2,0-7.7-3.3-7.7-7.7s3.3-7.7,7.7-7.7s7.7,3.3,7.7,7.7S29.4,32.6,25.1,32.6z"/>
</svg>
