<svg version="1.1" xmlns="http://www.w3.org/2000/svg" xmlns:xlink="http://www.w3.org/1999/xlink" x="0px" y="0px" viewBox="0 0 50 50" width="50px" height="50px" enable-background="new 0 0 50 50" preserveAspectRatio="none">
<path fill="#FFFFFF" d="M49.5,14.9c0,0-0.5-3.5-2-5c-1.8-2-4-2-5-2.2C35.5,7.4,25,7.4,25,7.4l0,0c0,0-10.5,0-17.5,0.5
	c-1,0.2-3.2,0.2-5,2.2c-1.5,1.5-2,5-2,5s-0.5,4-0.5,8v3.8c0,4,0.5,8.2,0.5,8.2s0.5,3.5,2,5c1.8,2,4.3,2,5.5,2.2c4,0.2,17,0.3,17,0.3
	s10.5,0,17.5-0.5c1-0.2,3.2-0.2,5-2.2c1.5-1.5,2-5,2-5s0.5-4,0.5-8.2v-3.8C50,19.1,49.5,14.9,49.5,14.9z M19.8,31.4v-14l13.5,7
	L19.8,31.4z"/>
</svg>
