<svg version="1.1" xmlns="http://www.w3.org/2000/svg" xmlns:xlink="http://www.w3.org/1999/xlink" x="0px" y="0px" viewBox="0 0 20 20" width="20px" height="20px" enable-background="new 0 0 20 20" xml:space="preserve">
	<path fill="#FFFFFF" d="M17.9,3l-7.6,0l1.6,2.5l0,0.7C9.6,8.4,8.4,10.9,8,14c-0.1,0.6,0.7,0.8,1,0.3c1.1-1.8,2.4-4.9,4.3-6
		c0.2-0.2,0.2-0.2,0.5-0.3l0.5,0.8l0.6,1.6l1.9-4.1L17.9,3z"/>
	<rect x="2" y="3" fill="#FFFFFF" width="7" height="2"/>
	<rect x="2" y="3" fill="#FFFFFF" width="2" height="13"/>
	<rect x="2" y="16" fill="#FFFFFF" width="16" height="2"/>
	<rect x="16" y="11" fill="#FFFFFF" width="2" height="5"/>
</svg>
