<svg version="1.1" xmlns="http://www.w3.org/2000/svg" xmlns:xlink="http://www.w3.org/1999/xlink" x="0px" y="0px" viewBox="0 0 32 32" width="32px" height="32px" enable-background="new 0 0 32 32">
<g>
	<g>
		<circle fill="#ffffff" cx="15.8" cy="8.6" r="4.8"/>
	</g>
	<g>
		<path fill="#ffffff" d="M24.5,27.5v-7.7c0-2.7-2.2-4.8-4.8-4.8h-7.8c-2.7,0-4.8,2.2-4.8,4.8v7.7H24.5z"/>
	</g>
	<path fill="#ffffff" d="M5.8,19.8c0-2.1,1.1-3.9,2.7-5.1H4.9c-2.2,0-3.9,1.7-3.9,3.9v7h4.8V19.8z"/>
	<path fill="#ffffff" d="M10.9,12.4c-0.8-1-1.2-2.3-1.2-3.7c0-0.8,0.2-1.6,0.5-2.4C9.5,5.9,8.8,5.7,8,5.7c-2.2,0-3.9,1.8-3.9,3.9
		s1.8,3.9,3.9,3.9C9.2,13.6,10.2,13.1,10.9,12.4z"/>
	<path fill="#ffffff" d="M27.1,14.6h-3.9c1.6,1.1,2.7,3,2.7,5.1v5.8H31v-6.9C31,16.5,29.3,14.6,27.1,14.6z"/>
	<path fill="#ffffff" d="M24,5.7c-0.9,0-1.7,0.3-2.4,0.8C21.9,7.1,22,7.8,22,8.6c0,1.3-0.4,2.5-1.1,3.5c0.7,0.9,1.8,1.4,3,1.4
		c2.2,0,3.9-1.8,3.9-3.9S26.1,5.7,24,5.7z"/>
</g>
</svg>
