<svg version="1.1" xmlns="http://www.w3.org/2000/svg" xmlns:xlink="http://www.w3.org/1999/xlink" x="0px" y="0px" viewBox="0 0 300 300" width="300px" height="300px" enable-background="new 0 0 300 300" xml:space="preserve">
<g id="Layer_3" display="none">
	<rect display="inline" fill="#BE1E2D" width="300" height="300"/>
</g>

<g>
	<g>
		<path fill="#FFFFFF" d="M209.9,262.7c-4.3,0-7.8,3.5-7.8,7.8c0,4.3,3.5,7.8,7.8,7.8c4.3,0,7.8-3.5,7.8-7.8
			C217.7,266.1,214.2,262.7,209.9,262.7z M209.9,275.1c-2.6,0-4.7-2.1-4.7-4.7c0-2.6,2.1-4.7,4.7-4.7c2.6,0,4.7,2.1,4.7,4.7
			C214.6,273,212.5,275.1,209.9,275.1z"/>
		<path fill="#FFFFFF" d="M98,40.1c0.5,0,1,0,1.5,0c0-0.9,0-1.7,0-2.6c0.9,0,1.8,0,2.7,0c0-0.5,0-1,0-1.5c-0.9,0-1.8,0-2.7,0
			c0-0.9,0-1.7,0-2.6c-0.5,0-1,0-1.5,0c0,0.9,0,1.7,0,2.6c-0.9,0-1.7,0-2.6,0c0,0.5,0,1,0,1.5c0.9,0,1.7,0,2.6,0
			C98,38.4,98,39.3,98,40.1z"/>
		<path fill="#FFFFFF" d="M85.1,46.8c0.5,0.2,1.1,0.2,1.7,0.3c0.1,0,0.3,0,0.4,0.1c0.3,0,0.5,0,0.8,0c0.1,0,0.2-0.1,0.3-0.1
			c0.5-0.1,1-0.1,1.4-0.2c1.6-0.4,2.9-1.2,3.7-2.6c0.7-1.2,0.6-3.2-0.5-4.2c-0.4-0.4-0.7-0.7-1.1-1.1c-0.3-0.3-0.7-0.6-1-0.9
			c-0.4-0.5-0.5-1-0.1-1.5c0.2-0.3,0.5-0.6,0.9-0.9c0.8-0.8,1.3-1.6,1.4-2.8c0.1-1.4-0.4-2.5-1.4-3.4c-0.1-0.1-0.1-0.1-0.3-0.3
			c0.5,0,0.9,0,1.2,0c0.1,0,0.3,0,0.4-0.1c0.4-0.3,0.9-0.5,1.3-0.8c-1.8,0-3.5,0-5.3,0c-0.6,0.1-1.1,0.1-1.7,0.3
			c-1.9,0.4-3.4,1.9-3.7,3.8c-0.4,2.3,1.4,4.2,3.2,4.4c0.3,0,0.5,0,0.8,0.1c0.3,0,0.5,0,0.8,0c-0.5,1-0.2,1.8,0.5,2.6
			c-0.7,0.1-1.4,0.1-2,0.2c-1.2,0.2-2.2,0.6-3.2,1.3c-0.8,0.6-1.2,1.3-1.3,2.2c0,0.1,0,0.2-0.1,0.2c0,0.1,0,0.3,0,0.4
			c0.1,0.2,0.1,0.5,0.2,0.7C83.1,45.7,84,46.4,85.1,46.8z M87.7,35.9c-0.3-0.2-0.6-0.4-0.8-0.7c-0.9-1.2-1.3-2.5-1.1-4
			c0.1-1,0.6-1.7,1.6-2c1-0.3,1.8,0,2.4,0.8c0.7,0.8,1,1.8,1.1,2.8c0,0.3,0.1,0.6,0.1,0.9c0,0.3-0.1,0.6-0.1,1
			C90.6,36.2,88.8,36.6,87.7,35.9z M86.2,40.7c1-0.4,2.1-0.6,3.2-0.5c0.1,0,0.3,0.1,0.4,0.1c0.6,0.4,1.2,0.9,1.7,1.3
			c1.4,1.3,1,3.3-0.7,4.1c-0.7,0.3-1.4,0.4-2.1,0.4c-1.1,0-2.1-0.2-3.1-0.9c-0.9-0.6-1.3-1.4-1.2-2.5C84.7,41.8,85.3,41.1,86.2,40.7
			z"/>
		<path fill="#FFFFFF" d="M300,37.5C300,16.8,283.2,0,262.5,0c-19.8,0-36,15.4-37.4,34.9l-45.6-2.1c-0.5-6.5-5.9-11.6-12.5-11.6
			c-6.6,0-12,5.1-12.5,11.6l-37.1,2.9c-0.9-12.9-11.7-23.1-24.9-23.1c-13.8,0-25,11.2-25,25c0,3.4,0.7,6.6,1.9,9.6L23.2,68.4
			c-2.2-3.6-6.1-5.9-10.6-5.9C5.7,62.5,0.1,68.1,0.1,75s5.6,12.5,12.5,12.5c1,0,2-0.1,2.9-0.4l18.4,49.7c-4,2.1-6.8,6.3-6.8,11.1
			c0,6.2,4.6,11.4,10.5,12.3l-1.1,30.7C16.2,191.6,0,208.2,0,228.6c0,20.7,16.8,37.5,37.5,37.5c13.3,0,25.1-7,31.7-17.5l36.5,11.7
			c-0.1,0.8-0.2,1.6-0.2,2.4c0,6.9,5.6,12.5,12.5,12.5c5.9,0,10.8-4.1,12.1-9.6c21.1,2.4,42.7,4.8,53.7,5.8
			c0.8,13.1,11.7,23.4,24.9,23.4c13.8,0,25-11.2,25-25c0-4.5-1.2-8.7-3.3-12.3l31.9-36.2c2,1.4,4.5,2.2,7.1,2.2
			c6.9,0,12.5-5.6,12.5-12.5c0-6.6-5.1-11.9-11.5-12.4l-5-123.7C284.8,73.3,300,57.2,300,37.5z M244.5,43.7c0.6,0.1,1.3,0.2,1.9,0.2
			c0.9,0,1.9-0.1,2.7-0.4c-4.7-0.9-8.3-5.1-8.3-10.1c0,0,0-0.1,0-0.1c1.4,0.8,3,1.2,4.7,1.3c-2.8-1.9-4.6-5-4.6-8.6
			c0-1.9,0.5-3.7,1.4-5.2c5.1,6.2,12.7,10.4,21.3,10.8c-0.2-0.8-0.3-1.5-0.3-2.4c0-5.7,4.6-10.3,10.3-10.3c3,0,5.7,1.3,7.5,3.3
			c2.4-0.5,4.6-1.3,6.6-2.5c-0.8,2.4-2.4,4.4-4.5,5.7c2.1-0.2,4.1-0.8,5.9-1.6c-1.4,2.1-3.1,3.9-5.2,5.3c0,0.4,0,0.9,0,1.3
			c0,13.6-10.4,29.4-29.4,29.4c-5.8,0-11.3-1.7-15.8-4.6c0.8,0.1,1.6,0.1,2.5,0.1c4.8,0,9.3-1.7,12.8-4.4
			C249.6,50.8,245.8,47.8,244.5,43.7z M249.8,72.8l-7.7,17.5c-0.7-0.1-1.4-0.2-2.2-0.2c-2.9,0-5.6,1-7.7,2.7L177.1,41
			c1.1-1.5,1.9-3.3,2.2-5.3l45.7,2.1C225.2,54,235.5,67.7,249.8,72.8z M258.5,205.3l-43.7-17.4c6.5-11.1,10.3-24,10.3-37.9
			c0-11.6-2.6-22.6-7.3-32.4l12.4-7.4c2.3,3,5.9,4.9,9.9,4.9c0.9,0,1.7-0.1,2.5-0.3l22.4,84.5C262.1,200.5,259.8,202.6,258.5,205.3z
			 M193.3,174.4v5.6H191v-12h3.2l5.2,9h0.1c-0.1-1.6-0.1-2.7-0.1-3.3V168h2.3v12h-3.2l-5.2-9.1h-0.1
			C193.2,172.5,193.3,173.7,193.3,174.4z M183.9,268.4c-11.1-1.1-33.7-3.6-53.4-5.8c0-5.5-3.6-10.1-8.5-11.8L133,223
			c5.5,1.3,11.2,2,17,2c11.1,0,21.6-2.4,31-6.7c6.5,11.4,12.7,22.4,16.4,29.3C189.7,251.5,184.4,259.3,183.9,268.4z M117.3,174.4
			v5.6H115v-12h3.2l5.2,9h0.1c-0.1-1.6-0.1-2.7-0.1-3.3V168h2.3v12h-3.2l-5.2-9.1h-0.1C117.2,172.5,117.3,173.7,117.3,174.4z
			 M39.5,191.1l1.1-30.7c5.8-0.5,10.5-5,11.3-10.7l23.1,0.9c0.1,15.8,5.2,30.5,13.7,42.5l-21.9,12C60.3,197,50.5,191.7,39.5,191.1z
			 M100.3,128.1h5V157h-6.1v-16.7l0.1-2.7l0.1-3c-1,1-1.7,1.7-2.1,2l-3.3,2.7l-2.9-3.7L100.3,128.1z M96,178c0.8,0,1.9-0.2,3.1-0.6
			v2.1c-1,0.4-2.1,0.6-3.3,0.6c-1.7,0-3.1-0.5-4-1.6c-0.9-1.1-1.4-2.6-1.4-4.6c0-1.2,0.2-2.3,0.7-3.3c0.5-0.9,1.1-1.7,2-2.2
			c0.8-0.5,1.8-0.7,3-0.7c1.2,0,2.3,0.3,3.5,0.8l-0.8,2.1c-0.4-0.2-0.9-0.4-1.4-0.6c-0.5-0.2-0.9-0.2-1.3-0.2c-1,0-1.7,0.4-2.2,1.1
			c-0.5,0.7-0.8,1.7-0.8,3C93,176.7,94,178,96,178z M102.6,178.6c-1-1.1-1.5-2.6-1.5-4.6s0.5-3.5,1.5-4.6c1-1.1,2.4-1.6,4.2-1.6
			c1.8,0,3.2,0.5,4.2,1.6c1,1.1,1.5,2.6,1.5,4.6c0,2-0.5,3.5-1.5,4.6c-1,1.1-2.4,1.6-4.2,1.6C105,180.2,103.6,179.6,102.6,178.6z
			 M111,162.2c0.9-3.5,1.5-6.8,2-9.9h5.5l0.3,0.5c-0.7,2.7-1.8,5.8-3.5,9.5H111z M117.5,38.7l37.2-2.9c0.8,4.9,4.4,8.7,9.1,10
			l-3.8,30c-3.3-0.4-6.6-0.7-10-0.7c-11.4,0-22.1,2.5-31.8,7.1L107,57.9C113.1,53.5,117.2,46.6,117.5,38.7z M167,180h-2.5v-9.9h-3.3
			V168h9v2.1H167V180z M163.8,153.8c-1.7,2.4-4.2,3.6-7.6,3.6c-3.3,0-5.9-1.3-7.5-3.8c-1.7-2.5-2.5-6.2-2.5-11.1
			c0-5.1,0.8-8.9,2.5-11.3c1.6-2.4,4.2-3.6,7.6-3.6c3.3,0,5.9,1.3,7.6,3.8c1.7,2.5,2.6,6.2,2.6,11.1
			C166.2,147.6,165.4,151.3,163.8,153.8z M156.8,178c0.8,0,1.9-0.2,3.1-0.6v2.1c-1,0.4-2.1,0.6-3.3,0.6c-1.7,0-3.1-0.5-4-1.6
			c-0.9-1.1-1.4-2.6-1.4-4.6c0-1.2,0.2-2.3,0.7-3.3c0.5-0.9,1.1-1.7,2-2.2c0.8-0.5,1.8-0.7,3-0.7c1.2,0,2.3,0.3,3.5,0.8l-0.8,2.1
			c-0.4-0.2-0.9-0.4-1.4-0.6c-0.5-0.2-0.9-0.2-1.3-0.2c-1,0-1.7,0.4-2.2,1.1c-0.5,0.7-0.8,1.7-0.8,3
			C153.8,176.7,154.8,178,156.8,178z M148.9,172.7v2.1h-4.1v3.1h4.4v2.1h-6.9v-12h6.9v2.1h-4.4v2.6H148.9z M123.4,155.8v-5.3
			c1,0.6,2.3,1,3.6,1.4c1.4,0.3,2.7,0.5,3.9,0.5c3.7,0,5.6-1.5,5.6-4.6c0-2.9-1.9-4.4-5.8-4.4c-0.7,0-1.5,0.1-2.3,0.2
			c-0.8,0.1-1.5,0.3-2.1,0.4l-2.4-1.3l1.1-14.7h15.7v5.2h-10.3l-0.5,5.7l0.7-0.1c0.8-0.2,1.8-0.3,3-0.3c2.8,0,5,0.8,6.7,2.4
			c1.7,1.6,2.5,3.7,2.5,6.4c0,3.2-1,5.7-3,7.5c-2,1.7-4.8,2.6-8.5,2.6C128,157.4,125.4,156.9,123.4,155.8z M128.6,168h3.2l5.2,9h0.1
			c-0.1-1.6-0.1-2.7-0.1-3.3V168h2.3v12H136l-5.2-9.1h-0.1c0.1,1.6,0.2,2.7,0.2,3.4v5.6h-2.3V168z M172.1,180v-12h2.5v12H172.1z
			 M178.6,178.6c-1-1.1-1.5-2.6-1.5-4.6s0.5-3.5,1.5-4.6c1-1.1,2.4-1.6,4.2-1.6c1.8,0,3.2,0.5,4.2,1.6c1,1.1,1.5,2.6,1.5,4.6
			c0,2-0.5,3.5-1.5,4.6c-1,1.1-2.4,1.6-4.2,1.6C181,180.2,179.6,179.6,178.6,178.6z M186.9,153.8c-1.7,2.4-4.2,3.6-7.6,3.6
			c-3.3,0-5.9-1.3-7.5-3.8c-1.7-2.5-2.5-6.2-2.5-11.1c0-5.1,0.8-8.9,2.5-11.3c1.6-2.4,4.2-3.6,7.6-3.6c3.3,0,5.9,1.3,7.6,3.8
			c1.7,2.5,2.6,6.2,2.6,11.1C189.4,147.6,188.5,151.3,186.9,153.8z M162.9,76.1l3.8-30c0.1,0,0.2,0,0.3,0c3.1,0,5.9-1.1,8-2.9
			L230.2,95c-1.7,2.1-2.7,4.8-2.7,7.7c0,1.8,0.4,3.5,1.1,5l-12.3,7.3C205.6,94.8,186.1,80.2,162.9,76.1z M209,176.2
			c-0.1-0.2-0.3-0.4-0.6-0.5c-0.3-0.2-0.8-0.4-1.6-0.8c-0.7-0.3-1.3-0.7-1.6-1c-0.4-0.3-0.7-0.7-0.9-1.1c-0.2-0.4-0.3-0.9-0.3-1.5
			c0-1.1,0.4-1.9,1.1-2.5c0.7-0.6,1.7-0.9,3-0.9c0.6,0,1.2,0.1,1.8,0.2c0.6,0.1,1.2,0.4,1.8,0.6l-0.8,2c-0.6-0.3-1.2-0.4-1.6-0.5
			c-0.4-0.1-0.8-0.2-1.2-0.2c-0.5,0-0.8,0.1-1.1,0.3c-0.3,0.2-0.4,0.5-0.4,0.9c0,0.2,0.1,0.4,0.2,0.6c0.1,0.2,0.3,0.3,0.5,0.5
			c0.2,0.2,0.8,0.4,1.6,0.8c1.1,0.5,1.9,1.1,2.3,1.6c0.4,0.5,0.6,1.2,0.6,2c0,1.1-0.4,1.9-1.2,2.6c-0.8,0.6-1.9,0.9-3.2,0.9
			c-1.3,0-2.4-0.2-3.4-0.7v-2.4c0.8,0.4,1.5,0.6,2.1,0.8c0.6,0.1,1.1,0.2,1.5,0.2c0.6,0,1-0.1,1.3-0.3c0.3-0.2,0.4-0.5,0.4-1
			C209.2,176.6,209.2,176.3,209,176.2z M204.5,144.9v7.6h-4.3v-7.6h-7.7v-4.3h7.7v-7.7h4.3v7.7h7.7v4.3H204.5z M79.3,26
			c0-0.8,0.6-1.4,1.4-1.4h23.1c0.8,0,1.4,0.6,1.4,1.4V49c0,0.8-0.6,1.4-1.4,1.4H80.8c-0.8,0-1.4-0.6-1.4-1.4V26z M70.8,49.8
			c4.3,7.6,12.4,12.7,21.8,12.7c4.3,0,8.4-1.1,11.9-3l11,23.9c-13.2,6.8-24.1,17.5-31.2,30.5L24.4,79c0.4-1.3,0.7-2.6,0.7-4
			c0-1.3-0.2-2.6-0.6-3.8L70.8,49.8z M18.3,86.1c2-1,3.6-2.5,4.8-4.4l59.8,34.8c-4.7,9.4-7.5,20-7.8,31.2L52,146.8
			c-0.6-6.3-6-11.3-12.4-11.3c-1,0-2,0.1-2.9,0.4L18.3,86.1z M57,245.9c0,1.2-1,2.1-2.1,2.1h-9.9v-15.1H50l0.8-5.9h-5.8v-3.8
			c0-1.7,0.5-2.9,2.9-2.9l3.1,0v-5.3c-0.5-0.1-2.4-0.2-4.5-0.2c-4.5,0-7.6,2.7-7.6,7.8v4.3h-5.1v5.9h5.1V248H20.2
			c-1.2,0-2.1-1-2.1-2.1v-34.6c0-1.2,1-2.1,2.1-2.1h34.6c1.2,0,2.1,1,2.1,2.1V245.9z M70.7,245.9c2.7-5.2,4.3-11.1,4.3-17.4
			c0-7.8-2.4-15-6.4-21l21.9-12c9.8,12.8,23.6,22.3,39.6,26.7l-11,27.9c-0.3,0-0.7-0.1-1.1-0.1c-5,0-9.4,3-11.3,7.3L70.7,245.9z
			 M222.9,277.6c0,2-1.6,3.6-3.6,3.6h-20.9c-2,0-3.6-1.6-3.6-3.6v-12.4c0-1.5,0.9-2.8,2.2-3.3c0-0.1-0.1-0.2-0.1-0.3
			c0-0.5,0.4-0.8,1-0.8h2.3c0.5,0,1,0.4,1,0.8h2l1.2-2.1c0.3-0.6,1.1-1,1.8-1h7.3c0.7,0,1.5,0.5,1.8,1l1.2,2h2.9
			c2,0,3.6,1.6,3.6,3.6V277.6z M208.8,244.8c-3.1,0-6,0.6-8.7,1.6c-3.8-7.3-10.2-18.6-16.3-29.4c12-6.1,22.1-15.3,29.4-26.5
			l44.3,17.6c-0.2,0.9-0.4,1.9-0.4,2.9c0,3.2,1.2,6.1,3.2,8.3l-31.4,35.5C224.3,248.8,217,244.8,208.8,244.8z M267.5,197.4
			l-22.1-83.5c4.2-2,7.1-6.3,7.1-11.3c0-5.1-3.1-9.5-7.5-11.4l7.7-17.5c3.1,0.8,6.4,1.3,9.8,1.3c0,0,0,0,0,0L267.5,197.4z"/>
		<path fill="#FFFFFF" d="M179.2,132.6c-1.4,0-2.5,0.8-3.1,2.3c-0.6,1.5-0.9,4.1-0.9,7.6c0,3.5,0.3,6.1,0.9,7.6
			c0.6,1.5,1.6,2.3,3.1,2.3c1.4,0,2.5-0.8,3.1-2.3c0.6-1.6,0.9-4.1,0.9-7.6c0-3.5-0.3-6.1-1-7.6
			C181.7,133.4,180.6,132.6,179.2,132.6z"/>
		<path fill="#FFFFFF" d="M109.9,174c0-2.7-1-4-3-4c-1,0-1.8,0.3-2.3,1c-0.5,0.7-0.8,1.7-0.8,3c0,1.3,0.3,2.3,0.8,3
			c0.5,0.7,1.3,1,2.3,1C108.8,178,109.9,176.7,109.9,174z"/>
		<path fill="#FFFFFF" d="M156.1,132.6c-1.4,0-2.5,0.8-3.1,2.3c-0.6,1.5-0.9,4.1-0.9,7.6c0,3.5,0.3,6.1,0.9,7.6
			c0.6,1.5,1.6,2.3,3.1,2.3c1.4,0,2.5-0.8,3.1-2.3c0.6-1.6,0.9-4.1,0.9-7.6c0-3.5-0.3-6.1-1-7.6
			C158.6,133.4,157.5,132.6,156.1,132.6z"/>
		<path fill="#FFFFFF" d="M182.8,169.9c-1,0-1.8,0.3-2.3,1c-0.5,0.7-0.8,1.7-0.8,3c0,1.3,0.3,2.3,0.8,3c0.5,0.7,1.3,1,2.3,1
			c2,0,3-1.3,3-4C185.9,171.3,184.9,169.9,182.8,169.9z"/>
	</g>
</g>
</svg>
