<svg version="1.1" xmlns="http://www.w3.org/2000/svg" xmlns:xlink="http://www.w3.org/1999/xlink" x="0px" y="0px" viewBox="0 0 300 150" width="300px" height="150px" enable-background="new 0 0 300 150" xml:space="preserve">
<g>
	<path fill="#FFFFFF" d="M53.2,23.6h17.5l-27.5,80.6H27.3L0,23.6h18l17.5,61.2L53.2,23.6z"/>
	<path fill="#FFFFFF" d="M231.3,23.6v14.3h-24.1v66.4h-17V37.9H166V23.6H231.3z"/>
	<path fill="#FFFFFF" d="M298,37.9h-42.7V55h39.2v14h-39.2v20.7H300v14.5h-61.1V23.6H298V37.9z"/>
	<g>
		<path fill="#FFFFFF" d="M165.9,66.9c-1.1,15.5-10.1,28.7-23.1,35.8l29.5-4.9L165.9,66.9z"/>
		<circle fill="#FFFFFF" cx="121.5" cy="63.6" r="30"/>
		<path fill="#FFFFFF" d="M160.9,42.8l-5.8-27.7l-24.2,5C143.9,22.9,154.8,31.4,160.9,42.8z"/>
		<path fill="#FFFFFF" d="M119.2,19.2L115,0.3L69.3,7.7l8.2,49.5C80.5,36.4,97.9,20.3,119.2,19.2z"/>
		<path fill="#FFFFFF" d="M82,83.9l4.6,28l27.3-4.5C100,105,88.2,96.1,82,83.9z"/>
	</g>
	<g>
		<path fill="#FFFFFF" d="M55.2,126h4.6l-5,23.1H49L43.9,126h4.6l2.7,14.8c0.2,1.3,0.4,2.6,0.5,3.9c0.1,0.6,0.2,1.3,0.2,1.9H52
			c0-0.6,0.1-1.3,0.2-1.9c0.1-1.3,0.3-2.7,0.5-3.9L55.2,126z"/>
		<path fill="#FFFFFF" d="M62.3,135.7c0.2-5.9,0.6-10.3,7.6-10.3s7.4,4.4,7.6,10.3v3.3c0,6.2-0.5,10.7-7.6,10.7
			c-7.1,0-7.6-4.5-7.6-10.7V135.7z M66.7,141.2c0,1.9,0.2,5,3.1,5c3.1,0,3.1-3.2,3.1-5.4v-5.9c0-1.9,0.1-6-3.1-6
			c-3.4,0-3.1,4-3.1,5.8V141.2z"/>
		<path fill="#FFFFFF" d="M79.8,126h14.4v3.4h-5v19.7h-4.3v-19.7h-5.1V126z"/>
		<path fill="#FFFFFF" d="M96.6,149.1V126h12.2v3.4H101v5.8h7.2v3.4H101v7.1h7.8v3.4H96.6z"/>
		<path fill="#FFFFFF" d="M113.2,149.1v-4.1h4.1v4.1H113.2z"/>
		<path fill="#FFFFFF" d="M132.8,126h4.3v16.1c0,5.1-1.7,7.6-7.3,7.6c-5.7,0-7.4-2.4-7.4-7.6V126h4.3v15.8c0,2.2,0.2,4.4,3.1,4.4
			c2.8,0,3-2.2,3-4.4V126z"/>
		<path fill="#FFFFFF" d="M139.7,126h14.4v3.4h-5v19.7h-4.3v-19.7h-5.1V126z"/>
		<path fill="#FFFFFF" d="M153.2,149.1l5.5-23.1h5.8l5.2,23.1h-4.6l-1.1-5.9H159l-1.1,5.9H153.2z M159.6,139.9h3.7l-1.2-6.6
			c-0.2-1.1-0.3-2.1-0.4-3.2c0-0.5-0.1-1-0.2-1.5h-0.1c-0.1,0.5-0.1,1-0.2,1.5c-0.1,1.1-0.2,2.1-0.4,3.2L159.6,139.9z"/>
		<path fill="#FFFFFF" d="M172.2,149.1V126h4.3v9.2h6V126h4.3v23.1h-4.3v-10.6h-6v10.6H172.2z"/>
		<path fill="#FFFFFF" d="M192,149.1v-4.1h4.1v4.1H192z"/>
		<path fill="#FFFFFF" d="M200.9,135.7c0.2-5.9,0.6-10.3,7.6-10.3c3.7,0,6.3,1,7.2,5c0.2,0.9,0.2,1.9,0.2,2.8h-4.3
			c-0.1-2.3-0.2-4.2-3.1-4.3c-3.4,0-3.1,4-3.1,5.8v6.4c0,1.9,0.2,5,3.1,5c2.5,0,3.3-2.6,3.2-6.1h-3v-3.4h7.2v12.4h-3.2v-2.7h-0.1
			c-0.9,2.4-2.5,3.1-4.1,3.2c-7.1,0-7.6-4.5-7.6-10.7V135.7z"/>
		<path fill="#FFFFFF" d="M219.9,135.7c0.2-5.9,0.6-10.3,7.6-10.3c6.9,0,7.4,4.4,7.6,10.3v3.3c0,6.2-0.5,10.7-7.6,10.7
			c-7.1,0-7.6-4.5-7.6-10.7V135.7z M224.3,141.2c0,1.9,0.2,5,3.1,5c3.1,0,3.1-3.2,3.1-5.4v-5.9c0-1.9,0.1-6-3.1-6
			c-3.4,0-3.1,4-3.1,5.8V141.2z"/>
		<path fill="#FFFFFF" d="M248.8,126h4.6l-5,23.1h-5.8l-5.1-23.1h4.6l2.7,14.8c0.2,1.3,0.4,2.6,0.5,3.9c0.1,0.6,0.2,1.3,0.2,1.9h0.1
			c0-0.6,0.1-1.3,0.2-1.9c0.1-1.3,0.3-2.7,0.5-3.9L248.8,126z"/>
	</g>
</g>
</svg>
