<svg version="1.1" xmlns="http://www.w3.org/2000/svg" xmlns:xlink="http://www.w3.org/1999/xlink" x="0px" y="0px" viewBox="0 0 50 50" width="50px" height="50px" enable-background="new 0 0 50 50" preserveAspectRatio="none">
<g>
	<polygon fill="#3C5F7C" points="2.7,0 35.5,0 35.5,7.7 47.3,7.7 47.3,50 2.7,50 	"/>
	<path fill="#FFFFFF" d="M25.1,7.7c-11,0-20,9-20,20s9,20,20,20s20-9,20-20S36.1,7.7,25.1,7.7z M25.1,40.4c-7,0-12.7-5.7-12.7-12.7
		S18,15,25.1,15s12.7,5.7,12.7,12.7S32.1,40.4,25.1,40.4z"/>
	<g>
		<path fill="#FFFFFF" d="M16.1,21.6H20c0.8,0,1.3,0,1.7,0.1c0.4,0.1,0.7,0.2,1,0.5c0.3,0.3,0.5,0.6,0.7,1c0.2,0.4,0.3,0.9,0.3,1.4
			c0,0.6-0.1,1.1-0.4,1.5c-0.2,0.5-0.6,0.8-1,1.1c0.6,0.2,1,0.6,1.4,1.1c0.3,0.5,0.5,1.1,0.5,1.8c0,0.5-0.1,1.1-0.3,1.6
			c-0.2,0.5-0.5,0.9-0.8,1.2s-0.8,0.5-1.3,0.6c-0.3,0-1.1,0.1-2.4,0.1h-3.3V21.6z M18.1,23.6v2.8h1.3c0.8,0,1.2,0,1.4,0
			c0.3,0,0.6-0.2,0.8-0.4c0.2-0.2,0.3-0.5,0.3-0.9c0-0.4-0.1-0.7-0.2-0.9c-0.2-0.2-0.4-0.4-0.7-0.4c-0.2,0-0.8,0-1.7,0H18.1z
			 M18.1,28.4v3.2h1.8c0.7,0,1.2,0,1.3-0.1c0.3-0.1,0.5-0.2,0.7-0.5c0.2-0.3,0.3-0.6,0.3-1c0-0.4-0.1-0.7-0.2-0.9
			c-0.1-0.2-0.3-0.4-0.6-0.5c-0.3-0.1-0.8-0.2-1.7-0.2H18.1z"/>
		<path fill="#FFFFFF" d="M25.9,33.6v-12h4.1c1,0,1.8,0.1,2.3,0.3c0.5,0.2,0.8,0.6,1.1,1.1c0.3,0.5,0.4,1.2,0.4,1.9
			c0,0.9-0.2,1.6-0.6,2.2c-0.4,0.6-1.1,1-1.9,1.1c0.4,0.3,0.8,0.6,1.1,1c0.3,0.4,0.6,1,1.1,1.9l1.2,2.3h-2.4L30.9,31
			c-0.5-0.9-0.9-1.5-1-1.8c-0.2-0.2-0.4-0.4-0.6-0.5c-0.2-0.1-0.5-0.1-1-0.1h-0.4v5H25.9z M27.9,26.7h1.5c0.9,0,1.5,0,1.8-0.1
			c0.2-0.1,0.4-0.3,0.6-0.5c0.1-0.2,0.2-0.5,0.2-0.9c0-0.4-0.1-0.7-0.3-1c-0.2-0.2-0.4-0.4-0.7-0.5c-0.2,0-0.6,0-1.4,0h-1.5V26.7z"
			/>
	</g>
	<g>
		<polygon fill="#3C5F7C" points="25,45.8 24.5,44.4 22.9,44.3 24.2,43.4 23.7,41.9 25,42.8 26.3,41.9 25.8,43.4 27.1,44.3 
			25.5,44.4 		"/>
		<polygon fill="#3C5F7C" points="25,9.6 25.5,11.1 27.1,11.1 25.8,12 26.3,13.5 25,12.6 23.7,13.5 24.2,12 22.9,11.1 24.5,11.1 		
			"/>
		<polygon fill="#3C5F7C" points="43.1,27.7 41.6,28.2 41.6,29.8 40.7,28.5 39.2,29 40.1,27.7 39.2,26.4 40.7,26.9 41.6,25.6 
			41.6,27.2 		"/>
		<polygon fill="#3C5F7C" points="6.9,27.7 8.4,27.2 8.4,25.6 9.3,26.9 10.8,26.4 9.9,27.7 10.8,29 9.3,28.5 8.4,29.8 8.4,28.2 		
			"/>
		<polygon fill="#3C5F7C" points="37.8,40.5 36.4,39.8 35.3,40.9 35.5,39.4 34.1,38.6 35.6,38.4 35.9,36.8 36.7,38.2 38.2,38 
			37.1,39.1 		"/>
		<polygon fill="#3C5F7C" points="12.2,14.9 13.6,15.6 14.7,14.5 14.5,16 15.9,16.8 14.4,17.1 14.1,18.6 13.3,17.2 11.8,17.4 
			12.9,16.3 		"/>
		<polygon fill="#3C5F7C" points="37.8,14.9 37.1,16.3 38.2,17.4 36.7,17.2 35.9,18.6 35.6,17.1 34.1,16.8 35.5,16 35.3,14.5 
			36.4,15.6 		"/>
		<polygon fill="#3C5F7C" points="12.2,40.5 12.9,39.1 11.8,38 13.3,38.2 14.1,36.8 14.4,38.4 15.9,38.6 14.5,39.4 14.7,40.9 
			13.6,39.8 		"/>
	</g>
</g>
</svg>
