<svg version="1.1" xmlns="http://www.w3.org/2000/svg" xmlns:xlink="http://www.w3.org/1999/xlink" x="0px" y="0px" viewBox="0 0 50 50" width="50px" height="50px" enable-background="new 0 0 50 50" preserveAspectRatio="none">
<path fill="#897465" d="M22,6.3v2.9h0.7V7.9h1.1v1.3h0.7V6.3h-0.7v1.1h-1.1V6.3H22z M5.5,27.8c0,0,6.5-1.6,7.6-1l4.6,3.5l-1.1-2.1
	l3.2-1.4l3.2,0.5L20.4,26l-5.4,1.4l-1.8-2.6l-1.2,0.4L5.5,27.8z M12.4,6.3v1.8c0,0.4,0.1,0.6,0.3,0.8c0.2,0.2,0.5,0.3,1,0.3
	c0.4,0,0.7-0.1,1-0.3c0.2-0.2,0.3-0.5,0.3-0.8V6.3h-0.7v1.8c0,0.2,0,0.4-0.1,0.5c-0.1,0.1-0.2,0.1-0.4,0.1c-0.2,0-0.3,0-0.4-0.1
	c-0.1-0.1-0.1-0.2-0.1-0.4V6.3H12.4z M17.2,9.2V6.9h0.9V6.3h-2.5v0.6h0.9v2.3H17.2z M20.4,8.6l0.2,0.6h0.8l-1.1-2.9h-0.9l-1.1,2.9
	h0.7l0.2-0.6H20.4z M19.9,7l0.4,1h-0.7L19.9,7z M43.4,8.1H29.8L28.3,0L6.6,1.3l19.3,0.5L29,10l12.1,0.1l-1,8.9L39.2,18l-3.7,3.1
	l3.2-1.6l1.2,0.7l-0.6,5.4c0.4,0.3,1.4,1,2.3,1.8c0.6,0.4,0,0.5-0.4,0.4c-0.4-0.1-1.3-0.9-1.9-1.3L39,28.8c0.8,0.2,1.8,0.6,2.4,0.9
	c0,0.1-0.1,0.1-0.1,0.1c0,0,0,0,0,0c-0.6-0.2-1.5-0.5-2.4-0.7l0,0C38.4,29,37.9,29,37.9,29c-1.2-0.1-3.7,0.8-3.7,0.8
	c-1-0.1-2.6,0.5-2.6,0.5c-0.1,0.2-1.2,0.3-1.2,0.3C30,30.4,29,30.5,29,30.5c-0.4,0.1-0.3-0.2-0.3-0.2c0.5-0.4,0.7-0.7,0.9-0.9
	c0.1-0.2-0.1-0.4-0.2-0.5c-0.4-0.1-1.2-0.1-2.6,0.3c0,0,0,0,0,0c-0.3,0-0.1-0.2-0.1-0.2c0.3-0.3,1.6-0.7,1.6-0.7
	c2-0.2,3.3-1.5,3.3-1.5c0.2-0.3,0.5-0.1,0.5-0.1c0.7,0.5,2.2,1,2.2,1c0.5,0,0.2-0.2,0.2-0.2c-0.6-0.2-1.8-1.1-1.8-1.1
	s-0.1,0-0.1-0.1c-0.1-0.2,0.2-0.2,0.2-0.2c0.3-0.1,1.1-0.6,1.1-0.6c0.3-0.3,1.3-0.4,1.3-0.4l2.2,0c0.1,0.2,1.6,0.8,1.6,0.8
	c0.5,0.1,2.3,1.5,2.3,1.5c0.6,0.4,0.4,0,0.4,0c-2.1-2.1-4.2-3-4.2-3c-0.2-0.2,0-0.5,0-0.5c0.7-0.7,0.7-1.6,0.7-1.6l-0.2-1.2
	c0-0.2-0.2,0-0.2,0c-0.1,1.5-0.2,1.7-0.2,1.7c-0.7,1.7-2.3,1.4-2.3,1.4c-0.5,0-0.5-0.2-0.5-0.2c0.2-0.3,0.1-2.6,0.1-2.6
	c-0.1-1-0.8-2.1-0.8-2.1c-0.2-0.1-0.4-0.7-0.4-0.7c0-0.4-0.2-0.4-0.2-0.4c0,0.5,0.2,1.1,0.2,1.1c0,0.4,0.5,1.6,0.5,1.6
	c0.1,1-0.2,1.7-0.2,1.7c-0.2,1.7-1.5,2.7-1.9,3c-0.1-0.2-0.1-0.3-0.1-0.5c0.7-0.5,1.6-1.6,1.6-1.6c0.4-0.7,0.2-0.8,0.2-0.8
	C32.2,25,31.3,25,31.3,25l0.1-1.7c0.1-0.3,0.4-1.8,0.4-1.8c0.1-0.4,0-0.5,0-0.5c-0.5,0.7-0.9,2.1-0.9,2.1l-0.1,1.9l-1.6,0
	c-0.5-0.1-0.1-0.9-0.1-0.9c0.8-1,1.3-3.6,1.3-3.6c0.1-0.9,0.4-1.5,0.4-1.5c0.2-1-0.1-0.5-0.1-0.5c-0.5,1-1.1,3.3-1.1,3.3
	c-1,2.9-2.9,4.6-2.9,4.6c0-0.1,0-0.5,0-0.5c0.2-0.3,0.2-0.7,0.2-0.7c0.1-0.5,0-0.4,0-0.4c-0.1,0.2-0.2,0.7-0.2,0.7
	c-0.3,0.4-0.3,1.1-0.3,1.1c-0.5,0-0.9-0.9-0.9-0.9c-0.4-0.5,0.4-2.4,0.4-2.4c0.2-0.4,0.8-1.7,0.8-1.7c0.2-0.5-0.1-0.3-0.1-0.3
	c-0.2,0.8-0.7,1.4-0.7,1.4c-0.4,0.4-0.9,2-0.9,2l-0.1,0.5c0,1,0.8,1.8,0.8,1.8v0.2c-0.1,0.4-0.4,0.2-0.4,0.2c0-0.4-0.8-1.6-0.8-1.6
	c-0.1-0.4,0.1-1.6,0.1-1.6c0.1-0.4,0-0.4,0-0.4c-0.3,0.2-0.4,0.9-0.4,0.9l-0.1,1.1c0,0.8,0.6,1.5,0.6,1.5c0.2,0.5-0.2,0.2-0.2,0.2
	c-0.2-0.3-0.6-0.6-0.6-0.6c-0.4-0.1-0.7-1-0.7-1c0-0.2-0.1-0.5-0.1-0.5c-0.2-0.3-0.1-0.6-0.1-0.6c0.2-0.2,0.2-0.8,0.2-0.8
	c0.1-0.3,0-0.2,0-0.2c-0.5,0.4-0.4,1.7-0.4,1.7c-0.1,0.4-0.1,0.3-0.1,0.3c-0.2-0.2,0-1.1,0-1.1c0-0.6-0.1-0.4-0.1-0.4l-0.1,0.9
	c-0.3,0.9,0.6,1.7,0.6,1.7c0.6,0.4,1.2,1.6,1.2,1.6c-0.1,0-0.2,0.3-0.2,0.3c-0.4,0-0.6,0.3-0.6,0.3c-0.4-0.2-1.2,0-1.2,0l-3.1,0.6
	c-0.4,0.3-0.2,0.8-0.2,0.8c0.1,0.4,1,0.8,1,0.8c-0.2,0.2-0.8,0.4-0.8,0.4c0,0.6,0.4,0.9,0.4,0.9l1.4,0.2c0.4,0.6,1.1,0.8,1.1,0.8
	c0.5,0.9,1.6,1,1.6,1c0.9,1.1,2.8,1.8,2.8,1.8c0.3,0.4,0.6,0.7,0.9,0.9l0,0c0.5,0.3,2.1,1.2,3.8,0.9c0.1-0.1,0.3-0.1,0.5,0
	c0.1,0.1,0.2,0.1,0.3,0.1c0,0,0,0,0.1,0.1c0.3,0.2,1.3,0.5,1.6,0.7c0,0,0,0,0,0c0,0,0,0,0,0c0,0,0.1,0,0.1,0.1
	c0.1,0.2-2-0.7-2.5-0.5c-1,0.4-1.7,0.6-4.5-1.1L9.6,41.8l-4.4,3.8l39.5,0L43.4,8.1z M27.2,27c0.3-0.2,1.4-1.2,1.4-1.2
	c0.2-0.3,0.8-0.2,0.8-0.2c0.4,0.1,1.5,0.1,1.5,0.1l-0.1,0.7c-0.5,1-3.2,1.5-3.2,1.5c0-0.2-0.4-0.5-0.4-0.5C27,27.3,27.2,27,27.2,27z
	 M39.1,48.1h0.4v1.5h-0.4V50h1.3v-0.4h-0.4v-1.5h0.4v-0.4h-1.3V48.1z M37.8,47.7h-0.6V50h1.6v-0.4h-1.1V47.7z M29.2,49.3l-0.4-1.6
	h-0.6l-0.4,1.6l-0.3-1.6h-0.6l0.6,2.3h0.6l0.4-1.5l0.4,1.5h0.6l0.6-2.3h-0.6L29.2,49.3z M43.1,50h1.6v-0.4h-1.1V49h1v-0.4h-1v-0.4
	h1.1v-0.4h-1.6V50z M41,50h0.6v-1h1v-0.4h-1v-0.4h1v-0.4H41V50z M30.6,48.1h0.4v1.5h-0.4V50h1.3v-0.4h-0.4v-1.5h0.4v-0.4h-1.3V48.1z
	 M33,47.7h-0.6V50h1.6v-0.4H33V47.7z M36.1,47.9c-0.1-0.1-0.2-0.1-0.3-0.1c-0.1,0-0.3,0-0.5,0h-0.8V50h0.8c0.2,0,0.3,0,0.5,0
	c0.1,0,0.3-0.1,0.4-0.1c0.1-0.1,0.3-0.2,0.4-0.4c0.1-0.2,0.1-0.4,0.1-0.6c0-0.2,0-0.4-0.1-0.6C36.4,48.1,36.3,48,36.1,47.9z
	 M36,49.2c-0.1,0.1-0.1,0.2-0.2,0.2c-0.1,0-0.1,0.1-0.2,0.1c-0.1,0-0.2,0-0.3,0h-0.1v-1.4h0.1c0.1,0,0.2,0,0.3,0
	c0.1,0,0.1,0,0.2,0.1c0.1,0.1,0.2,0.1,0.3,0.2c0.1,0.1,0.1,0.2,0.1,0.4C36,49,36,49.1,36,49.2z"/>
</svg>
