<svg version="1.1" id="Layer_1" xmlns="http://www.w3.org/2000/svg" xmlns:xlink="http://www.w3.org/1999/xlink" x="0px" y="0px" viewBox="0 0 50 25" width="50px" height="25px" enable-background="new 0 0 50 25" xml:space="preserve">
<path fill="#0067A3" d="M19.9,11h-3.4v8.5h2.2v-2.8H20c1.9,0,3-0.9,3-2.9C23,11.9,21.7,11,19.9,11z M19.1,14.9h-0.4v-2.1h0.4
	c0.9,0,1.6,0,1.6,1.1C20.7,14.9,19.9,14.9,19.1,14.9z"/>
<path fill="#0067A3" d="M30.1,13.6c0-1.8-1.3-2.6-3-2.6h-3.3v8.5H26v-3.3h0l2.1,3.3h2.8L28.2,16C29.4,15.8,30.1,14.8,30.1,13.6z
	 M26.2,14.8H26v-2.1h0.2c0.7,0,1.5,0.1,1.5,1.1C27.8,14.7,26.9,14.8,26.2,14.8z"/>
<polygon fill="#0067A3" points="31.6,19.5 36.4,19.5 36.4,17.7 33.8,17.7 33.8,16.2 36.3,16.2 36.3,14.3 33.8,14.3 33.8,12.9 
	36.4,12.9 36.4,11 31.6,11 "/>
<path fill="#0067A3" d="M41.5,14.4l-0.6-0.2c-0.4-0.1-1-0.3-1-0.8c0-0.5,0.5-0.7,0.9-0.7c0.5,0,1.1,0.2,1.5,0.6l0.9-1.7
	c-0.8-0.4-1.8-0.7-2.7-0.7c-1.7,0-2.9,1.1-2.9,2.9c0,1.6,0.9,2,2.3,2.4c0.5,0.1,1.3,0.3,1.3,1c0,0.6-0.6,0.9-1.1,0.9
	c-0.8,0-1.4-0.4-2-0.9l-0.9,1.8c0.9,0.6,1.9,1,3,1c0.9,0,1.7-0.2,2.4-0.8c0.7-0.6,0.9-1.4,0.9-2.3C43.6,15.3,42.7,14.7,41.5,14.4z"
	/>
<path fill="#0067A3" d="M47.9,14.4l-0.6-0.2c-0.4-0.1-1-0.3-1-0.8c0-0.5,0.5-0.7,0.9-0.7c0.5,0,1.1,0.2,1.5,0.6l0.9-1.7
	c-0.8-0.4-1.8-0.7-2.7-0.7c-1.7,0-2.9,1.1-2.9,2.9c0,1.6,0.9,2,2.3,2.4c0.5,0.1,1.3,0.3,1.3,1c0,0.6-0.6,0.9-1.1,0.9
	c-0.8,0-1.4-0.4-2-0.9l-0.9,1.8c0.9,0.6,1.9,1,3,1c0.9,0,1.8-0.2,2.4-0.8c0.7-0.6,0.9-1.4,0.9-2.3C50,15.3,49.1,14.7,47.9,14.4z"/>
<path fill="#0067A3" d="M4.9,6.9c0-0.8-0.5-1.1-1.2-1.1H2.3v3.5h0.9V8h0l0.9,1.4h1.1L4.1,7.9C4.6,7.8,4.9,7.4,4.9,6.9z M3.3,7.4
	L3.3,7.4L3.2,6.5h0.1c0.3,0,0.6,0.1,0.6,0.4C3.9,7.4,3.6,7.4,3.3,7.4z"/>
<polygon fill="#0067A3" points="7.5,6.6 7.5,5.8 5.5,5.8 5.5,9.4 7.5,9.4 7.5,8.6 6.4,8.6 6.4,8 7.4,8 7.4,7.2 6.4,7.2 6.4,6.6 "/>
<polygon fill="#0067A3" points="10.7,8 9,5.8 8.1,5.8 8.1,9.4 9,9.4 9,7.2 9,7.2 10.7,9.4 11.6,9.4 11.6,5.8 10.7,5.8 10.7,8 "/>
<polygon fill="#0067A3" points="14.2,6.6 14.2,5.8 12.2,5.8 12.2,9.4 14.2,9.4 14.2,8.6 13.1,8.6 13.1,8 14.2,8 14.2,7.2 13.1,7.2 
	13.1,6.6 "/>
<polygon fill="#0067A3" points="18.2,8.1 18.2,8.1 17.5,5.8 16.7,5.8 16,8.1 16,8.1 15.4,5.8 14.4,5.8 15.5,9.4 16.4,9.4 17.1,7.3 
	17.1,7.3 17.7,9.4 18.7,9.4 19.8,5.8 18.8,5.8 "/>
<path fill="#0067A3" d="M20.6,8.8h1.3l0.2,0.6h1l-1.3-3.5h-1l-1.4,3.5h1L20.6,8.8z M21.2,6.9L21.2,6.9L21.6,8h-0.8L21.2,6.9z"/>
<polygon fill="#0067A3" points="23.3,5.8 23.3,9.4 25.4,9.4 25.4,8.6 24.3,8.6 24.3,5.8 "/>
<rect y="8.9" fill="#0067A3" width="1.7" height="0.3"/>
<rect y="8" fill="#0067A3" width="1.7" height="0.3"/>
<rect y="6.1" fill="#0067A3" width="1.7" height="0.3"/>
<rect y="7" fill="#0067A3" width="1.7" height="0.3"/>
<polygon fill="#0067A3" points="4.8,17.7 2.2,17.7 2.2,16.2 4.7,16.2 4.7,14.3 2.2,14.3 2.2,12.9 4.8,12.9 4.8,11 0,11 0,19.5 
	4.8,19.5 "/>
<polygon fill="#0067A3" points="23.8,0 21.7,0 17.5,5.1 0,5.1 0,5.4 26.1,5.4 26.1,5.1 19.9,5.1 "/>
<polygon fill="#0067A3" points="0,9.9 0,10.1 13.5,10.1 10.9,13.4 9.2,11 6.2,11 9.4,15.6 1.7,25 5,25 11,17.6 12.3,19.7 15.3,19.7 
	12.3,15.4 16.2,10.1 26.1,10.1 26.1,9.9 "/>
</svg>
