<svg version="1.1" id="Layer_1" xmlns="http://www.w3.org/2000/svg" xmlns:xlink="http://www.w3.org/1999/xlink" x="0px" y="0px" viewBox="-8 10 32 32" width="32px" height="32px" enable-background="new -8 10 32 32" xml:space="preserve">
<path fill="#FFFFFF" d="M19.5,35.3l-7-7c2.5-3.5,2.2-8.5-1-11.7C8,13.1,2.1,13.1-1.4,16.7c-3.5,3.5-3.5,9.3,0,12.8
	c3.2,3.2,8.1,3.5,11.7,1l7,7c0.6,0.6,1.6,0.6,2.2,0l0,0C20.2,36.9,20.2,36,19.5,35.3z M0.7,27.4c-2.4-2.4-2.4-6.2,0-8.5
	c2.4-2.4,6.2-2.4,8.5,0c2.4,2.4,2.4,6.2,0,8.5C7,29.7,3.1,29.7,0.7,27.4z"/>
</svg>
