<svg version="1.1" xmlns="http://www.w3.org/2000/svg" xmlns:xlink="http://www.w3.org/1999/xlink" x="0px" y="0px" viewBox="0 0 32 32" width="32px" height="32px" enable-background="new 0 0 32 32" preserveAspectRatio="none">
<path fill="#676767" d="M23.5,21.3l-7-7c2.5-3.5,2.2-8.5-1-11.7C12-0.9,6.1-0.9,2.6,2.7c-3.5,3.5-3.5,9.3,0,12.8c3.2,3.2,8.1,3.5,11.7,1l7,7
	c0.6,0.6,1.6,0.6,2.2,0l0,0C24.2,22.9,24.2,22,23.5,21.3z M4.7,13.4c-2.4-2.4-2.4-6.2,0-8.5c2.4-2.4,6.2-2.4,8.5,0
	c2.4,2.4,2.4,6.2,0,8.5C11,15.7,7.1,15.7,4.7,13.4z"/>
</svg>
