<svg version="1.1" xmlns="http://www.w3.org/2000/svg" xmlns:xlink="http://www.w3.org/1999/xlink" x="0px" y="0px" viewBox="0 0 32 32" width="32px" height="32px" enable-background="new 0 0 32 32" preserveAspectRatio="none">
<g>
	<path fill="#676868" d="M16,1C7.7,1,1,7.7,1,16s6.7,15,15,15s15-6.7,15-15S24.3,1,16,1z M27.3,16c0,6.2-5.1,11.3-11.3,11.3
		S4.7,22.2,4.7,16S9.8,4.7,16,4.7S27.3,9.8,27.3,16z"/>
	<path fill="#676868" d="M17.9,16.7v-6.4c0-1.1-0.9-2-2-2c-1.1,0-2,0.9-2,2v7.2c0,0,0,0,0,0c0,0.5,0.2,1,0.6,1.4l3.6,3.6
		c0.4,0.4,0.9,0.6,1.4,0.6c0.5,0,1-0.2,1.4-0.6c0.8-0.8,0.8-2,0-2.8L17.9,16.7z"/>
</g>
</svg>
