<svg version="1.1" xmlns="http://www.w3.org/2000/svg" xmlns:xlink="http://www.w3.org/1999/xlink" x="0px" y="0px" viewBox="0 0 32 32" width="32px" height="32px" enable-background="new 0 0 32 32" xml:space="preserve">
<path fill="#676767" d="M10.4,28.2c-3.5,0-6.7-1-9.5-2.8c0.5,0.1,1,0.1,1.5,0.1c2.9,0,5.5-1,7.7-2.6c-2.7,0-5-1.8-5.8-4.3
	c0.4,0.1,0.8,0.1,1.2,0.1c0.6,0,1.1-0.1,1.6-0.2c-2.8-0.6-4.9-3.1-4.9-6c0,0,0-0.1,0-0.1c0.8,0.5,1.8,0.7,2.8,0.8
	C3.3,12,2.2,10.1,2.2,8c0-1.1,0.3-2.2,0.8-3.1c3,3.7,7.6,6.2,12.7,6.4c-0.1-0.5-0.2-0.9-0.2-1.4c0-3.4,2.8-6.2,6.2-6.2
	c1.8,0,3.4,0.7,4.5,1.9c1.4-0.3,2.7-0.8,3.9-1.5c-0.5,1.4-1.4,2.6-2.7,3.4c1.2-0.1,2.4-0.5,3.5-1c-0.8,1.2-1.9,2.3-3.1,3.2
	c0,0.3,0,0.5,0,0.8C27.9,18.8,21.7,28.2,10.4,28.2" />
</svg>
