<svg version="1.1" xmlns="http://www.w3.org/2000/svg" xmlns:xlink="http://www.w3.org/1999/xlink" x="0px" y="0px" viewBox="0 0 50 50" width="50px" height="50px" enable-background="new 0 0 50 50" preserveAspectRatio="none">
<g>
	<path fill="#43739E" d="M26.2,25.2c-0.9-0.4-1.5-0.3-2-0.3c1.3,0,3-0.9,3-1.6c0,0.3,0,1.5,0,1.5s8.5,0,12.7,0c0-1.1,0-2.2,0-3.4
		c-2.9,0-5.9,0-8.8,0c0-3.1,0-6.3,0-9.4c-2.4,0-7,0-7,0s0,7.5,0,7.9c0,1.2-0.6,1.5-1.6,1.5c-1.9,0-3,0-4.9,0c-1,0-1.7-0.4-1.7-1.5
		c0-0.9,0-7.9,0-7.9h-3.9c0,0,0,8.6,0,9.6c0,2.1,2.4,3.3,3.4,3.3c-1,0-3.9,1.1-3.9,3.8c0,1.6,0,3.4,0,5c0,2.5,0.7,4.1,4.7,4.1
		c2.6,0,5.2,0,7.8,0c4.4,0,4.2-2.4,4.2-3.4c0-0.5,0-1.3,0-1.8c-1.3,0-2.8,0-4,0c0,0.2,0,0.6,0,0.8c0,0.9-0.7,1-1.8,1
		c-1.4,0-3.4,0-4.8,0c-1.4,0-1.9-0.3-1.9-1.5c0-0.4,0-2.8,0-3.3c0-1,0.6-1.6,1.9-1.6c0.7,0,3.8,0,4.8,0c1.1,0,1.7,0.5,1.7,1.4
		c0.1,0,3.9,0,4.1,0c0-0.4,0-0.7,0-1c0.9,0,1.6,0,2.5,0c0,3.2,0,6.3,0,9.5c1.3,0,2.7,0,4,0c0-3.2,0-6.3,0-9.5c1.8,0,3.7,0,5.5,0
		c0-1.1,0-2.2,0-3.3C39.9,25.2,30.6,25.2,26.2,25.2z"/>
	<g>
		<g>
			<path fill="#43739E" d="M3.1,16.9c-0.4-0.1-1.1-0.3-1.3-0.3c-0.1,0-0.2,0.1-0.2,0.3l-0.1,0.2c-0.1,0-0.1,0-0.1-0.1
				c0.1-0.2,0.2-0.5,0.2-0.7c0.1-0.3,0.1-0.4,0.2-0.7c0,0,0.1,0,0.2,0l0,0.2c0,0.2,0,0.3,0.1,0.4c0.2,0.1,0.9,0.4,1.3,0.5l0.7,0.2
				C4.4,17,5,17.3,5.2,17.8c0.2,0.4,0.3,0.9,0.1,1.3c-0.1,0.4-0.3,0.8-0.7,1.1c-0.4,0.3-0.9,0.3-1.6,0.1l-1.5-0.4
				c-0.7-0.2-0.8-0.2-0.9,0.2l-0.1,0.2c0,0-0.1,0-0.1-0.1c0.1-0.3,0.2-0.5,0.2-0.8s0.1-0.5,0.2-0.8c0,0,0.1,0,0.2,0l0,0.2
				c-0.1,0.4,0,0.4,0.7,0.6l1.4,0.4c1,0.3,1.8,0.2,2.1-0.8c0.3-0.9-0.4-1.5-1.3-1.7L3.1,16.9z"/>
			<path fill="#43739E" d="M6.3,14.1c0.6,0.3,0.7,0.4,0.9,0.1L7.4,14c0,0,0.1,0,0.1,0.1c-0.2,0.3-0.3,0.5-0.4,0.7
				c-0.1,0.2-0.2,0.4-0.4,0.8c0,0-0.1,0-0.1-0.1l0.1-0.2c0.2-0.3,0.1-0.4-0.5-0.8l-2.6-1.4C3.3,13,3.3,13,3.2,13.2L3,13.5
				c-0.1,0.2-0.3,0.6-0.3,0.8c0,0.2,0.1,0.3,0.3,0.5c0,0.1-0.1,0.1-0.1,0.1c-0.2-0.2-0.5-0.5-0.7-0.7c0,0,0-0.1,0.1-0.1
				c0.2,0.1,0.3-0.1,0.5-0.4L4,11.4c0.2-0.3,0.2-0.4,0.1-0.5c0,0,0-0.1,0.1-0.1C4.4,11,4.8,11.3,5,11.3c0,0,0,0.1-0.1,0.2
				c-0.2-0.1-0.4-0.1-0.5-0.1c-0.2,0.1-0.3,0.3-0.5,0.6l-0.2,0.4c-0.1,0.2-0.1,0.2,0.1,0.3L6.3,14.1z"/>
			<path fill="#43739E" d="M8.6,10.1C8.4,10,8.4,10,8.3,10.2l-0.6,0.8c-0.1,0.1-0.1,0.2,0,0.3L8,11.8c0.2,0.3,0.3,0.4,0.3,0.5
				c0.1,0.1,0.1,0.1,0.2-0.1l0.2-0.2c0.1,0,0.1,0.1,0.1,0.1c-0.1,0.1-0.3,0.3-0.5,0.5c-0.1,0.2-0.3,0.4-0.4,0.5c0,0-0.1,0-0.1-0.1
				l0.1-0.2c0.1-0.1,0.1-0.3,0-0.5c-0.2-0.3-0.4-0.7-0.7-1.4L6.3,9.4C6.2,9.1,6.1,9,6,9c0.1-0.1,0-0.3,0-0.4c0,0,0.1-0.1,0.1,0
				C6.4,8.7,6.7,8.8,7,8.9l2.6,1c0.6,0.2,0.7,0.2,0.9,0l0.1-0.1c0.1,0,0.1,0.1,0.1,0.1c-0.2,0.2-0.3,0.4-0.5,0.6
				c-0.2,0.2-0.4,0.4-0.5,0.6c-0.1,0-0.1,0-0.1-0.1l0.1-0.2c0.1-0.1,0.1-0.2,0.1-0.3c-0.1,0-0.2-0.1-0.3-0.2L8.6,10.1z M7.3,10.7
				c0.1,0.1,0.1,0.1,0.2,0L8,10.1C8.1,9.9,8.1,9.9,8,9.8l-1-0.4C6.8,9.3,6.6,9.3,6.5,9.3l0,0c0,0,0.1,0.2,0.2,0.4L7.3,10.7z"/>
			<path fill="#43739E" d="M10.8,7.1c-0.3,0.2-0.3,0.2-0.1,0.4l0.5,0.7c0.4,0.6,0.5,0.6,0.8,0.4l0.2-0.1c0,0,0.1,0.1,0.1,0.1
				C12,8.9,11.8,9,11.6,9.1c-0.2,0.2-0.4,0.3-0.6,0.5c0,0-0.1-0.1-0.1-0.1L11,9.4c0.3-0.3,0.2-0.3-0.2-0.9L9.4,6.6
				C9,6.1,8.9,6,8.6,6.2L8.5,6.3c0,0-0.1-0.1-0.1-0.1c0.3-0.2,0.5-0.3,0.7-0.5c0.2-0.2,0.4-0.3,0.6-0.5c0,0,0.1,0.1,0.1,0.1L9.7,5.4
				C9.4,5.7,9.4,5.7,9.8,6.3l0.4,0.6c0.1,0.2,0.1,0.2,0.4,0l1.5-1.1c0.3-0.2,0.3-0.2,0.1-0.4l-0.4-0.6c-0.4-0.6-0.5-0.6-0.8-0.4
				L11,4.4c0,0-0.1-0.1-0.1-0.1c0.3-0.2,0.4-0.3,0.7-0.5c0.2-0.2,0.4-0.3,0.6-0.5c0,0,0.1,0.1,0.1,0.1l-0.1,0.1
				c-0.3,0.3-0.2,0.3,0.2,0.9l1.4,1.9c0.4,0.6,0.5,0.6,0.8,0.4l0.1-0.1c0,0,0.1,0.1,0.1,0.1c-0.3,0.2-0.4,0.3-0.7,0.5
				c-0.2,0.2-0.4,0.3-0.6,0.5c0,0-0.1-0.1-0.1-0.1l0.1-0.1c0.3-0.3,0.2-0.3-0.2-0.9L12.7,6c-0.1-0.2-0.1-0.2-0.4,0L10.8,7.1z"/>
			<path fill="#43739E" d="M16.7,2.4c-0.2-0.7-0.3-0.8-0.7-0.7l-0.2,0c0,0-0.1-0.1,0-0.2c0.4-0.1,0.6-0.2,0.8-0.2
				c0.2-0.1,0.5-0.2,0.8-0.3c0,0,0.1,0.1,0.1,0.2l-0.1,0.1C17,1.5,17,1.6,17.3,2.3L18,4.4c0.1,0.4,0.2,0.6,0.3,0.6
				c0.1,0,0.2,0.1,0.7-0.1c0.5-0.2,0.7-0.2,0.7-0.3C19.9,4.5,20,4.3,20,3.9c0,0,0.2-0.1,0.2,0c0,0.1,0.1,0.8,0,1
				c-0.3,0.1-0.9,0.3-1.6,0.5L18,5.5c-0.3,0.1-0.5,0.2-0.8,0.3c0,0-0.1-0.1-0.1-0.2l0.2-0.1c0.4-0.2,0.3-0.2,0.1-0.9L16.7,2.4z"/>
			<path fill="#43739E" d="M21,1.3c-0.1-0.7-0.1-0.8-0.5-0.8h-0.1c0,0,0-0.1,0-0.2c0.3,0,0.5,0,0.8-0.1l1.2-0.1
				c0.4,0,0.8-0.1,0.9-0.1c0.1,0.1,0.1,0.6,0.2,0.9c0,0-0.1,0.1-0.2,0c-0.1-0.3-0.2-0.5-0.6-0.6c-0.1,0-0.4,0-0.6,0l-0.5,0.1
				c-0.2,0-0.2,0-0.2,0.3L21.7,2c0,0.2,0,0.2,0.2,0.2l0.4,0c0.3,0,0.5-0.1,0.6-0.1c0.1,0,0.1-0.1,0.1-0.2l0-0.3c0,0,0.1-0.1,0.2,0
				c0,0.2,0,0.4,0.1,0.7c0,0.2,0.1,0.5,0.1,0.6c0,0-0.1,0.1-0.2,0L23,2.6c0-0.1-0.1-0.2-0.2-0.2c-0.1,0-0.3,0-0.5,0l-0.4,0
				c-0.2,0-0.2,0-0.2,0.2l0.1,0.9c0,0.3,0.1,0.6,0.2,0.7c0.1,0.1,0.2,0.1,0.8,0.1c0.5-0.1,0.7-0.1,0.8-0.2c0.1-0.1,0.3-0.3,0.4-0.7
				c0,0,0.1,0,0.2,0c0,0.2-0.1,0.8-0.2,0.9c-0.6,0.1-1.2,0.1-1.8,0.2l-0.6,0.1c-0.3,0-0.5,0.1-0.9,0.1c0,0-0.1-0.1,0-0.2l0.2,0
				c0.4-0.1,0.4-0.2,0.3-0.9L21,1.3z"/>
			<path fill="#43739E" d="M27.4,2.9c0-0.1-0.1-0.2-0.3-0.2l-1-0.1c-0.2,0-0.2,0-0.3,0.1l-0.3,0.7c-0.1,0.3-0.2,0.5-0.2,0.5
				c0,0.1,0,0.1,0.2,0.1l0.2,0c0,0,0,0.1,0,0.2c-0.2,0-0.4,0-0.7-0.1c-0.2,0-0.5,0-0.6,0c0,0,0-0.1,0-0.2h0.2c0.2,0,0.3-0.1,0.4-0.3
				c0.1-0.3,0.4-0.7,0.7-1.4l0.8-1.7c0.1-0.2,0.2-0.3,0.1-0.5c0.2,0,0.3-0.1,0.4-0.2c0,0,0.1,0,0.1,0.1c0.1,0.3,0.1,0.6,0.2,0.9
				l0.7,2.7c0.1,0.6,0.2,0.7,0.5,0.7l0.2,0c0,0,0,0.1,0,0.2c-0.3,0-0.5-0.1-0.8-0.1c-0.3,0-0.6,0-0.8,0c-0.1,0,0-0.1,0-0.2h0.2
				c0.1,0,0.2,0,0.2-0.1c0-0.1,0-0.2-0.1-0.4L27.4,2.9z M26.1,2.3c-0.1,0.1-0.1,0.2,0.1,0.2l0.8,0.1c0.2,0,0.2,0,0.2-0.2L27,1.2
				c0-0.2-0.1-0.3-0.1-0.4h0c0,0-0.1,0.2-0.2,0.4L26.1,2.3z"/>
			<path fill="#43739E" d="M33,5.2c-0.1,0.3-0.1,0.4,0,0.5c0,0,0,0.1,0,0.1c-0.1,0-0.2,0-0.3,0c-0.4,0-0.8-0.1-1.2-0.2
				c-0.7-0.2-1.4-0.7-1.7-1.3c-0.3-0.5-0.3-1.1-0.1-1.6c0.2-0.5,0.5-1,1-1.3C31.3,1,32,0.9,33,1.2c0.4,0.1,0.7,0.3,0.8,0.3
				c0.1,0.1,0.3,0.2,0.4,0.2C34,1.9,34,2.3,33.9,2.7c0,0-0.1,0-0.2,0c0-0.7-0.4-1.1-1-1.3c-1.2-0.4-2,0.3-2.3,1.2
				c-0.4,1.2-0.1,2.3,1.2,2.7c0.4,0.1,0.6,0.1,0.7,0c0,0,0.1-0.1,0.2-0.3l0.1-0.3c0.2-0.5,0.2-0.6-0.2-0.7l-0.3-0.1c0,0,0-0.2,0-0.2
				c0.2,0.1,0.5,0.2,0.9,0.3c0.2,0.1,0.5,0.1,0.7,0.2c0,0,0,0.1,0,0.2l-0.1,0c-0.3-0.1-0.3,0.1-0.4,0.4L33,5.2z"/>
			<path fill="#43739E" d="M38.4,5.9c0.2-0.3,0.6-1,0.6-1.2c0-0.1-0.1-0.2-0.2-0.3l-0.1-0.1c0-0.1,0-0.1,0.1-0.1
				c0.2,0.1,0.4,0.3,0.6,0.4c0.2,0.1,0.4,0.2,0.6,0.3C40,5,39.9,5,39.9,5L39.8,5c-0.1-0.1-0.3-0.1-0.4,0c-0.2,0.1-0.6,0.8-0.8,1.1
				l-0.4,0.6c-0.3,0.5-0.7,1-1.2,1.1c-0.4,0.1-0.9,0-1.3-0.3c-0.4-0.2-0.7-0.5-0.9-1c-0.1-0.4,0-0.9,0.4-1.6L36,3.7
				c0.4-0.6,0.4-0.7,0.1-0.9L36,2.6c0,0,0.1-0.1,0.1-0.1c0.3,0.2,0.5,0.3,0.7,0.4c0.2,0.1,0.4,0.2,0.7,0.4c0,0,0,0.1-0.1,0.1
				l-0.1-0.1c-0.3-0.2-0.4-0.1-0.8,0.5l-0.7,1.2c-0.6,0.9-0.6,1.7,0.2,2.2c0.8,0.5,1.5,0.1,2-0.8L38.4,5.9z"/>
			<path fill="#43739E" d="M40.8,7c0.5-0.5,0.5-0.6,0.3-0.9L41,6c0,0,0.1-0.1,0.1-0.1c0.2,0.2,0.3,0.4,0.5,0.6l0.9,0.9
				c0.3,0.3,0.6,0.6,0.6,0.6c0,0.1-0.4,0.5-0.5,0.7c0,0-0.1-0.1-0.1-0.1c0.1-0.3,0.3-0.5,0.1-0.8c-0.1-0.1-0.2-0.3-0.4-0.5l-0.3-0.3
				c-0.1-0.1-0.2-0.1-0.3,0.1l-0.9,0.9c-0.1,0.1-0.1,0.1,0,0.3l0.3,0.3c0.2,0.2,0.4,0.3,0.4,0.4c0.1,0,0.1,0,0.3-0.1l0.2-0.2
				c0.1,0,0.1,0.1,0.1,0.1c-0.1,0.1-0.3,0.3-0.5,0.5c-0.2,0.2-0.3,0.4-0.4,0.5C41,9.7,41,9.6,41,9.6l0.1-0.2c0.1-0.1,0.1-0.2,0-0.3
				c0-0.1-0.2-0.2-0.3-0.4l-0.3-0.3c-0.1-0.1-0.2-0.1-0.3,0L39.6,9c-0.2,0.2-0.4,0.4-0.4,0.6c0,0.1,0,0.3,0.5,0.7
				c0.4,0.4,0.5,0.5,0.7,0.5c0.1,0,0.4,0,0.8-0.1c0.1,0,0.1,0.1,0.1,0.1c-0.2,0.1-0.7,0.4-0.9,0.4c-0.4-0.4-0.8-0.8-1.2-1.2
				l-0.4-0.4C38.5,9.4,38.3,9.2,38,9c0,0,0-0.1,0.1-0.1L38.3,9c0.3,0.2,0.4,0.2,0.9-0.3L40.8,7z"/>
			<path fill="#43739E" d="M44,12.4c1.2-0.6,2.5-0.2,3.1,1c0.7,1.3,0.1,2.5-1,3.1c-1.2,0.6-2.5,0.2-3.1-1
				C42.4,14.2,42.9,12.9,44,12.4z M45.7,16c1-0.5,1.8-1.4,1.2-2.6c-0.3-0.6-1.1-1.2-2.4-0.5c-0.9,0.4-1.8,1.4-1.2,2.6
				C43.7,16.2,44.5,16.5,45.7,16z"/>
			<path fill="#43739E" d="M47.1,18.6c-0.2,0-0.2,0.1-0.1,0.3l0.1,0.4c0.1,0.3,0.1,0.5,0.2,0.5c0,0.1,0.1,0.1,0.3,0.1l0.3,0
				c0,0,0.1,0.1,0,0.2c-0.2,0-0.4,0.1-0.6,0.1c-0.2,0.1-0.5,0.1-0.6,0.2c0,0-0.1-0.1,0-0.2l0.2-0.1c0.1-0.1,0.2-0.1,0.2-0.3
				c0-0.1,0-0.3-0.1-0.5l-0.1-0.4c0-0.2-0.1-0.2-0.2-0.2L45.6,19c-0.7,0.2-0.8,0.2-0.7,0.6l0,0.2c0,0-0.1,0.1-0.2,0
				c-0.1-0.4-0.1-0.6-0.2-0.9c-0.1-0.3-0.1-0.5-0.2-0.8c0,0,0.1-0.1,0.2-0.1l0.1,0.2c0.1,0.4,0.2,0.3,0.9,0.2l2.3-0.6
				c0.7-0.2,0.8-0.2,0.7-0.6l0-0.1c0,0,0.1-0.1,0.2,0c0.1,0.3,0.1,0.5,0.2,0.7l0.3,1.2c0.1,0.4,0.2,0.8,0.2,0.9
				c-0.3,0.1-0.6,0.2-0.8,0.2c0,0-0.1-0.1-0.1-0.1c0.3-0.1,0.5-0.3,0.5-0.6c0-0.1-0.1-0.4-0.1-0.6l-0.1-0.4c0-0.2-0.1-0.2-0.3-0.1
				L47.1,18.6z"/>
		</g>
		<g>
			<path fill="#43739E" d="M3.7,27.1c0.4,0.4,0.7,1,0.8,1.6c0.1,0.3,0.1,0.9,0,1.2c0,0.1,0,0.1,0,0.2c-0.1,0-0.6,0.1-0.9,0.3
				c-0.1,0-0.1-0.1,0-0.2C4,30,4.5,29.6,4.3,28.7c-0.2-1-0.9-1.7-2.3-1.5c-1.4,0.2-2,1.2-1.8,2.3c0.1,0.8,0.7,1.1,1.2,1.2
				c0,0,0,0.1,0,0.2c-0.3,0-0.8-0.1-0.9-0.2c0-0.1-0.1-0.1-0.1-0.2c-0.1-0.1-0.3-0.6-0.3-1C0,28.9,0,28.3,0.2,27.8
				c0.3-0.6,0.8-1.1,1.6-1.2C2.6,26.4,3.2,26.7,3.7,27.1z"/>
			<path fill="#43739E" d="M4.2,31.6c0.7-0.2,0.8-0.3,0.7-0.7l0-0.2c0,0,0.1-0.1,0.2,0c0.1,0.3,0.2,0.5,0.3,0.8
				c0.1,0.2,0.2,0.5,0.3,0.8c0,0-0.1,0.1-0.2,0.1l-0.1-0.2c-0.2-0.4-0.3-0.3-0.9-0.1l-2.2,0.8c-0.7,0.2-0.7,0.3-0.7,0.7l0,0.2
				c0,0-0.1,0.1-0.2,0c-0.1-0.3-0.2-0.5-0.2-0.8C1,32.7,1,32.5,0.8,32.2c0,0,0.1-0.1,0.2-0.1l0.1,0.1c0.2,0.4,0.3,0.3,0.9,0.1
				L4.2,31.6z"/>
			<path fill="#43739E" d="M3.8,36.5c-0.6,0.3-0.7,0.4-0.5,0.7l0.1,0.2c0,0-0.1,0.1-0.2,0.1C3,37.2,2.9,37,2.8,36.7
				c-0.1-0.2-0.2-0.4-0.5-0.8c0,0,0.1-0.1,0.1-0.1l0.1,0.2c0.2,0.3,0.3,0.3,0.9,0l2.6-1.4c0.2-0.1,0.2-0.1,0.1-0.3L6,34
				c-0.1-0.2-0.3-0.6-0.5-0.6c-0.2-0.1-0.4-0.1-0.5,0c-0.1,0-0.1-0.1,0-0.2c0.3,0,0.7-0.2,1-0.2c0,0,0.1,0.1,0.1,0.1
				c-0.2,0.1-0.1,0.3,0.1,0.6L7.3,36c0.2,0.3,0.2,0.4,0.4,0.4c0,0,0.1,0.1,0,0.1c-0.3,0.1-0.8,0.3-0.9,0.4c-0.1,0-0.1-0.1-0.1-0.1
				c0.1-0.1,0.3-0.3,0.3-0.4c0-0.2,0-0.4-0.2-0.7l-0.2-0.4C6.5,35,6.5,35,6.3,35.1L3.8,36.5z"/>
			<path fill="#43739E" d="M7.5,37.9c0.5-0.4,0.6-0.5,0.4-0.8L7.8,37c0,0,0.1-0.1,0.1-0.1c0.2,0.3,0.3,0.4,0.5,0.7
				c0.2,0.2,0.3,0.4,0.5,0.6c0,0-0.1,0.1-0.1,0.1l-0.1-0.1c-0.3-0.3-0.4-0.2-0.9,0.2L6,39.8c-0.5,0.4-0.6,0.5-0.4,0.8l0.1,0.1
				c0,0-0.1,0.1-0.1,0.1c-0.2-0.3-0.3-0.4-0.5-0.7c-0.2-0.2-0.3-0.4-0.5-0.6c0,0,0.1-0.1,0.1-0.1l0.1,0.1c0.3,0.3,0.4,0.2,0.9-0.2
				L7.5,37.9z"/>
			<path fill="#43739E" d="M9.2,39.8c0.5-0.5,0.5-0.6,0.3-0.9l-0.1-0.1c0,0,0.1-0.1,0.1-0.1c0.2,0.2,0.4,0.4,0.6,0.5l0.9,0.8
				c0.3,0.3,0.6,0.6,0.7,0.6c0,0.1-0.3,0.5-0.5,0.7c0,0-0.1-0.1-0.1-0.1c0.1-0.3,0.3-0.5,0.1-0.8c-0.1-0.1-0.2-0.3-0.4-0.5l-0.3-0.3
				c-0.1-0.1-0.2-0.1-0.3,0.1l-0.9,1c-0.1,0.1-0.1,0.1,0,0.3l0.3,0.3c0.2,0.2,0.4,0.3,0.4,0.4c0.1,0,0.1,0,0.3-0.1l0.2-0.2
				c0.1,0,0.1,0.1,0.1,0.1c-0.1,0.1-0.3,0.3-0.5,0.5c-0.2,0.2-0.3,0.4-0.4,0.5c-0.1,0-0.1-0.1-0.1-0.1l0.1-0.2
				c0.1-0.1,0.1-0.2,0-0.3c0-0.1-0.2-0.2-0.3-0.4l-0.3-0.3c-0.1-0.1-0.2-0.1-0.3,0L8,41.9c-0.2,0.3-0.4,0.4-0.4,0.6
				c0,0.1,0.1,0.3,0.5,0.7c0.4,0.3,0.5,0.5,0.7,0.5c0.1,0,0.4,0,0.8-0.1c0.1,0,0.1,0.1,0.1,0.1C9.4,43.8,9,44,8.8,44.1
				c-0.4-0.4-0.8-0.8-1.3-1.2l-0.4-0.4c-0.2-0.2-0.4-0.3-0.7-0.6c0,0,0-0.1,0.1-0.1l0.2,0.1c0.3,0.2,0.4,0.2,0.9-0.3L9.2,39.8z"/>
			<path fill="#43739E" d="M10.9,45.7c-0.5-0.3-0.7-0.6-0.7-0.8c0-0.2,0.2-0.6,0.4-0.9c0.1,0,0.1,0,0.1,0.1c-0.1,0.3-0.2,1,0.4,1.4
				c0.5,0.3,0.9,0.1,1.1-0.2c0.2-0.2,0.3-0.5,0.1-1.1L12,43.7c-0.2-0.4-0.3-0.9,0-1.3c0.3-0.5,1-0.7,1.7-0.2
				c0.2,0.1,0.3,0.3,0.5,0.4c0.1,0.1,0.1,0.1,0.2,0.2c0,0.2-0.2,0.5-0.3,0.7c0,0-0.1,0-0.1-0.1c0.1-0.3,0.2-0.8-0.3-1.1
				c-0.5-0.4-0.9-0.1-1.1,0.2c-0.2,0.3-0.1,0.7,0,1l0.3,0.6c0.2,0.4,0.3,1,0,1.5C12.4,46.1,11.6,46.2,10.9,45.7z"/>
			<path fill="#43739E" d="M18.3,47.4c0-0.2,0-0.2-0.2-0.2l-0.9-0.3c-0.2-0.1-0.2,0-0.3,0.1l-0.4,0.6c-0.2,0.3-0.3,0.4-0.3,0.5
				c0,0.1,0,0.1,0.1,0.2l0.2,0.1c0,0,0,0.1-0.1,0.2c-0.2-0.1-0.4-0.1-0.6-0.2c-0.2-0.1-0.4-0.1-0.6-0.2c0,0,0-0.1,0-0.2l0.2,0
				c0.2,0,0.3,0,0.5-0.2c0.2-0.3,0.5-0.6,1-1.2l1.2-1.5c0.2-0.2,0.2-0.3,0.2-0.4c0.2,0,0.3-0.1,0.4-0.1c0,0,0.1,0,0.1,0.1
				c0,0.3,0,0.6,0,0.9l0,2.8c0,0.6,0.1,0.7,0.3,0.8l0.2,0.1c0,0,0,0.1-0.1,0.2c-0.3-0.1-0.5-0.2-0.8-0.3c-0.3-0.1-0.5-0.2-0.7-0.2
				c0,0,0-0.1,0-0.2l0.2,0c0.1,0,0.2,0,0.3,0c0-0.1,0-0.2,0-0.4L18.3,47.4z M17.3,46.4c-0.1,0.1-0.1,0.1,0.1,0.2l0.8,0.2
				c0.2,0.1,0.2,0,0.2-0.1l0-1.1c0-0.2,0-0.4,0-0.4h0c0,0-0.1,0.2-0.3,0.3L17.3,46.4z"/>
			<path fill="#43739E" d="M24.7,48.8c0,0.2-0.1,1-0.1,1.1c0,0-0.1,0.1-0.1,0.1c-0.1-0.1-0.2-0.4-0.8-1.1l-1.4-1.8
				c-0.2-0.2-0.6-0.8-0.7-0.9h0c0,0.1-0.1,0.2-0.1,0.4L21.4,48c0,0.3-0.1,1.2,0,1.4c0,0.1,0.2,0.1,0.3,0.2l0.2,0c0,0.1,0,0.1,0,0.2
				c-0.3,0-0.5-0.1-0.8-0.1c-0.3,0-0.5,0-0.7,0c0,0,0-0.1,0-0.2h0.2c0.2,0,0.3,0,0.3-0.1c0.1-0.2,0.2-1,0.2-1.3l0.2-1.9
				c0-0.2,0-0.3-0.1-0.5c-0.1-0.1-0.2-0.2-0.4-0.2l-0.1,0c0,0,0-0.1,0-0.2c0.3,0,0.6,0.1,0.7,0.1c0.1,0,0.2,0,0.3,0
				c0.1,0.3,0.8,1.3,1,1.5l0.6,0.8c0.4,0.5,0.7,0.9,1,1.3h0c0,0,0-0.1,0-0.3l0.1-1.4c0-0.3,0.1-1.2,0-1.4c0-0.1-0.1-0.1-0.4-0.2
				l-0.1,0c0,0,0-0.1,0-0.2c0.3,0,0.5,0.1,0.8,0.1c0.3,0,0.5,0,0.7,0c0,0,0,0.1,0,0.2h-0.1c-0.2,0-0.3,0.1-0.4,0.1
				c-0.1,0.2-0.2,1-0.2,1.3L24.7,48.8z"/>
			<path fill="#43739E" d="M26.7,46.4c-0.1-0.5-0.1-0.6-0.4-0.6h-0.1c-0.1,0-0.1-0.1,0-0.2c0.5-0.1,1.1-0.2,1.6-0.3
				c0.5-0.1,1-0.1,1.5,0c0.9,0.2,1.5,0.8,1.6,1.7c0.1,0.8-0.1,1.6-0.8,2.1c-0.4,0.3-0.9,0.5-1.4,0.5c-0.4,0.1-0.8,0.1-1.1,0.1
				c-0.3,0-0.5,0.1-0.8,0.2c0,0-0.1-0.1,0-0.2l0.1,0c0.4-0.1,0.4-0.2,0.3-0.9L26.7,46.4z M27.6,48.6c0.1,0.3,0.1,0.5,0.2,0.7
				c0.2,0.2,0.4,0.2,0.8,0.1c1.3-0.2,1.7-1.1,1.5-2.3c-0.1-0.7-0.7-1.9-2.4-1.6c-0.4,0.1-0.6,0.1-0.6,0.2c0,0,0,0.2,0,0.5L27.6,48.6
				z"/>
			<path fill="#43739E" d="M36,46.2c0.3,0.6,0.4,0.7,0.7,0.6l0.2-0.1c0,0,0.1,0.1,0.1,0.2c-0.3,0.2-0.5,0.3-0.8,0.4
				c-0.2,0.1-0.4,0.2-0.8,0.4c0,0-0.1-0.1-0.1-0.1l0.2-0.1c0.3-0.2,0.3-0.3,0-0.9l-1.3-2.6c-0.1-0.2-0.1-0.2-0.3-0.1l-0.3,0.2
				c-0.3,0.1-0.6,0.3-0.6,0.5c-0.1,0.2-0.1,0.4-0.1,0.5c0,0.1-0.1,0.1-0.2,0c0-0.3-0.1-0.7-0.2-1c0,0,0.1-0.1,0.1-0.1
				c0.1,0.2,0.3,0.1,0.6-0.1l2.4-1.2c0.3-0.2,0.4-0.2,0.4-0.4c0,0,0.1-0.1,0.1,0c0.1,0.3,0.3,0.8,0.4,0.9c0,0.1-0.1,0.1-0.1,0.1
				c-0.1-0.1-0.2-0.3-0.4-0.4c-0.2,0-0.4,0-0.8,0.2l-0.4,0.2c-0.2,0.1-0.2,0.1-0.1,0.3L36,46.2z"/>
			<path fill="#43739E" d="M37.8,44c-0.8-1-0.7-2.4,0.3-3.3c1.2-1,2.5-0.6,3.2,0.3c0.8,1,0.7,2.4-0.3,3.2
				C39.9,45.1,38.6,44.9,37.8,44z M41,41.6c-0.7-0.8-1.8-1.4-2.8-0.6c-0.5,0.4-0.9,1.3,0,2.5c0.6,0.8,1.8,1.4,2.8,0.6
				C41.6,43.5,41.8,42.6,41,41.6z"/>
			<path fill="#43739E" d="M40.1,39.5c-0.1,0-0.1-0.1-0.1-0.1c0.1-0.1,0.3-0.4,0.4-0.5c0.1-0.1,0.3-0.4,0.4-0.6c0.1,0,0.1,0,0.1,0.1
				l-0.1,0.1c-0.1,0.1-0.1,0.2,0,0.2c0.1,0,0.4,0.1,0.9,0.2c0.9,0.2,1.8,0.3,2.7,0.5c-0.2-0.3-0.4-0.7-0.6-1
				c-0.1-0.1-0.1-0.2-0.2-0.2s-0.1,0-0.2-0.1c-0.6-0.1-1.1-0.2-1.7-0.3c-0.2,0-0.4,0-0.5,0.1l-0.1,0.1c-0.1,0-0.1,0-0.1-0.1
				c0.1-0.1,0.3-0.3,0.4-0.6c0.2-0.3,0.3-0.5,0.4-0.6c0,0,0.1,0,0.1,0.1L42,37c-0.1,0.2-0.1,0.3,0.2,0.3c0.3,0.1,0.8,0.2,1.2,0.3
				c-0.1-0.3-0.3-0.5-0.5-0.8c-0.3-0.5-0.4-0.5-0.5-0.4l-0.1,0.2c-0.1,0-0.1-0.1-0.1-0.1c0.1-0.1,0.2-0.3,0.4-0.5
				c0.1-0.2,0.3-0.4,0.4-0.5c0,0,0.1,0,0.1,0.1l-0.1,0.2c-0.1,0.2,0,0.5,0.2,0.8c0.1,0.3,0.4,0.8,0.5,1c0,0.1,0.1,0.1,0.1,0.1
				c0,0,0.1,0,0.2,0.1c0.5,0.1,1.1,0.2,1.6,0.3c-0.3-0.4-0.5-0.9-0.8-1.3c-0.2-0.3-0.7-1.1-0.8-1.2c-0.1-0.2-0.3-0.5-0.4-0.5
				c-0.1-0.1-0.2,0-0.2,0.1l-0.1,0.1c-0.1,0-0.1,0-0.1-0.1c0.2-0.2,0.3-0.3,0.4-0.5c0.1-0.2,0.3-0.4,0.3-0.5c0,0,0.1,0,0.1,0.1
				l-0.1,0.1c-0.2,0.3,0,0.4,0.5,1.3l0.6,1c0.4,0.6,0.7,1.2,1.2,1.8c0,0,0,0,0,0.1c0,0,0,0-0.1,0.1c-0.6-0.2-1.5-0.3-2-0.4
				c0.3,0.5,0.7,1.3,1,1.7c0,0,0,0,0,0.1c0,0,0,0-0.1,0.1c-0.3-0.1-0.9-0.2-1.1-0.3c-1-0.2-2-0.4-3-0.6c-0.3-0.1-0.5-0.1-0.7,0.1
				L40.1,39.5z"/>
			<path fill="#43739E" d="M48.2,31.3c0.2,0.1,0.9,0.3,1.1,0.4c0,0,0,0.1,0,0.1c-0.1,0-0.4,0.1-1.2,0.4l-2.2,0.8
				c-0.3,0.1-0.9,0.3-1.1,0.4v0c0.1,0.1,0.2,0.1,0.4,0.2l1.3,0.5c0.3,0.1,1.1,0.4,1.3,0.4c0.1,0,0.2-0.1,0.2-0.3l0.1-0.2
				c0.1,0,0.1,0,0.1,0.1c-0.1,0.3-0.2,0.5-0.3,0.7c-0.1,0.3-0.2,0.4-0.2,0.6c0,0-0.1,0-0.2,0l0-0.2c0-0.1,0-0.3,0-0.3
				c-0.2-0.2-0.9-0.4-1.2-0.5l-1.8-0.7c-0.2-0.1-0.3-0.1-0.5,0c-0.1,0.1-0.2,0.2-0.3,0.3l-0.1,0.1c-0.1,0-0.1,0-0.1-0.1
				c0.1-0.3,0.2-0.6,0.3-0.7c0-0.1,0.1-0.2,0.1-0.3c0.4,0,1.4-0.4,1.7-0.6l0.9-0.4c0.6-0.3,1.1-0.4,1.5-0.6v0c0,0-0.1-0.1-0.3-0.1
				L46.6,31c-0.3-0.1-1.1-0.4-1.3-0.3c-0.1,0-0.1,0.1-0.3,0.3L45,31.1c-0.1,0-0.1,0-0.1-0.1c0.1-0.3,0.2-0.5,0.3-0.7
				c0.1-0.3,0.2-0.4,0.2-0.6c0,0,0.1,0,0.2,0l0,0.1c0,0.2,0,0.4,0,0.4c0.2,0.2,1,0.5,1.2,0.6L48.2,31.3z"/>
			<path fill="#43739E" d="M50,28.6c-0.1,0.5-0.3,0.9-0.4,1c-0.2,0.1-0.6,0.1-0.9,0c0,0,0-0.1,0-0.2c0.3,0,1-0.2,1.1-1
				c0.1-0.5-0.2-0.9-0.6-0.9c-0.3,0-0.6,0-1,0.4l-0.5,0.6c-0.3,0.3-0.7,0.6-1.2,0.5c-0.6-0.1-1-0.6-0.9-1.5c0-0.2,0.1-0.4,0.2-0.6
				c0-0.1,0.1-0.2,0.1-0.2c0.2,0,0.5,0,0.8,0c0,0,0,0.1,0,0.2c-0.3,0-0.8,0.2-0.9,0.8c-0.1,0.6,0.3,0.8,0.6,0.9
				c0.4,0.1,0.7-0.2,0.9-0.4l0.4-0.5c0.3-0.4,0.8-0.7,1.4-0.6C49.7,27.1,50.1,27.7,50,28.6z"/>
		</g>
		<polygon fill="#43739E" points="2,21.9 2.4,23.2 3.8,23.2 2.7,23.9 3.1,25.2 2,24.4 0.9,25.2 1.3,23.9 0.2,23.2 1.6,23.2 		"/>
		<polygon fill="#43739E" points="47.8,21.9 48.2,23.2 49.6,23.2 48.5,23.9 48.9,25.2 47.8,24.4 46.7,25.2 47.1,23.9 46.1,23.2 
			47.4,23.2 		"/>
	</g>
</g>
</svg>
