<svg version="1.1" xmlns="http://www.w3.org/2000/svg" xmlns:xlink="http://www.w3.org/1999/xlink" x="0px" y="0px" viewBox="0 0 50 50" width="50px" height="50px" enable-background="new 0 0 50 50" preserveAspectRatio="none">
<g>
	<path fill="#144E9E" d="M6.5,9.8c0,0,25.6,5.3,26.1,5.3c5.9,1,5.7,2.2,5.7,2.2c4.1,0,4.6,0.1,5.3,0.7c2.2,1.8-1.4,7.1-1.4,7.1
		C41.7,25.6,3.7,40.3,3.7,40.3h39.8L50,9.7H6.5V9.8L6.5,9.8z"/>
	<path fill="#144E9E" d="M36.2,19.8c-0.6,0.3-2.1,0.4-2.8,0.5s-0.9,0.1-0.9,0.4c0,0.2,0.1,0.4,1.1,0.4c2.2,0,6.3-0.8,7.5-0.5
		c0.6,0.2,0.1,1.3-0.4,2.8c-0.2,0.6,0.2,0.5,0.4,0.3c0.2-0.3,1.3-2.2,1.4-3.1c0.2-1.4-1-1.6-2.7-1.6h-2.6c-0.1,0-0.2,0.1-0.4,0.3
		C36.7,19.4,36.6,19.6,36.2,19.8L36.2,19.8z"/>
	<path fill="#144E9E" d="M5,16.8L0,40.3c0,0,15.3-7.5,17.2-8.5c3.8-2,9.1-4.6,14-6.2c0.9-0.3,4.9-1.5,7.3-2c0.9-0.2,1.3-0.3,1.3-0.5
		c0-0.5-0.9-0.5-2.5-0.4c-4.7,0.2-13.7,3.8-16.3,5.2l-2.9-9.1h18.7c0.8-2.4-11-2-11.4-2L5,16.8L5,16.8L5,16.8z"/>
</g>
</svg>
