<svg version="1.1" xmlns="http://www.w3.org/2000/svg" xmlns:xlink="http://www.w3.org/1999/xlink" x="0px" y="0px" viewBox="0 0 32 32" width="32px" height="32px" enable-background="new 0 0 32 32" preserveAspectRatio="none">
<path fill="#676767" d="M30.7,9.9c0,0-0.3-2.1-1.2-3c-1.1-1.2-2.4-1.2-3-1.3C22.3,5.4,16,5.4,16,5.4h0c0,0-6.3,0-10.5,0.3
	C4.9,5.8,3.6,5.8,2.5,7c-0.9,0.9-1.2,3-1.2,3S1,12.4,1,14.8v2.3c0,2.4,0.3,4.9,0.3,4.9s0.3,2.1,1.2,3c1.1,1.2,2.6,1.2,3.3,1.3
	C8.2,26.4,16,26.5,16,26.5s6.3,0,10.5-0.3c0.6-0.1,1.9-0.1,3-1.3c0.9-0.9,1.2-3,1.2-3s0.3-2.4,0.3-4.9v-2.3
	C31,12.4,30.7,9.9,30.7,9.9z M12.9,19.8l0-8.4l8.1,4.2L12.9,19.8z" />
</svg>
