<svg version="1.1" xmlns="http://www.w3.org/2000/svg" xmlns:xlink="http://www.w3.org/1999/xlink" x="0px" y="0px" viewBox="0 0 20 20" width="20px" height="20px" enable-background="new 0 0 20 20" xml:space="preserve">
<g>
	<path fill="#676767" d="M16.2,15.3c-2.5-0.9-4.7,0-6.1,1.6c-1.5-1.6-3.8-2.5-6-1.6H4v-4.9l0,0c1.8-0.8,3.9-1.2,6-1.2
		c2.2,0,4.3,0.4,6.1,1.2l0,0L16.2,15.3L16.2,15.3z"/>
	<path fill="#676767" d="M3.2,11.1v-0.7V9.8l0.5-0.3c1.9-0.8,4.1-1.3,6.4-1.3s4.5,0.4,6.4,1.3L17,9.8v0.6v0.5L20,9.2l-9.8-6
		L-0.1,9.2L3.2,11.1z"/>
</g>
</svg>
