<svg version="1.1" xmlns="http://www.w3.org/2000/svg" xmlns:xlink="http://www.w3.org/1999/xlink" x="0px" y="0px" viewBox="0 0 20 20" width="20px" height="20px" enable-background="new 0 0 20 20" xml:space="preserve">
<g>
	<path fill="#676767" d="M11.3,12.5L11.3,12.5c0,0.4-0.2,0.7-0.6,0.7H9.2c-0.3,0-0.6-0.2-0.6-0.6v-0.1c-2.2-0.1-4.2-0.3-5.9-0.8
		C1.6,11.4,0.7,11,0,10.6v6.2c0,0.8,0.7,1.5,1.5,1.5h17c0.8,0,1.5-0.7,1.5-1.5v-6.2C18.2,11.8,14.7,12.4,11.3,12.5z"/>
	<path fill="#676767" d="M18.5,5.6h-17C0.7,5.6,0,6.2,0,7.1v1.6c0,1.4,3.8,2.5,8.7,2.7v-0.2c0-0.3,0.2-0.6,0.6-0.6h1.5
		c0.3,0,0.6,0.3,0.6,0.6v0.2c4.8-0.2,8-1.2,8.7-2.2v-2C20,6.2,19.3,5.6,18.5,5.6z"/>
	<path fill="#676767" d="M7.2,4.3V3.8c0-0.3,0.2-0.6,0.6-0.6h4.5c0.3,0,0.6,0.2,0.6,0.6v0.5h1.7V3.2c0-0.8-0.7-1.6-1.6-1.6H7.2
		c-0.8,0-1.6,0.7-1.6,1.6v1.1H7.2z"/>
</g>
</svg>
