<svg version="1.1" xmlns="http://www.w3.org/2000/svg" xmlns:xlink="http://www.w3.org/1999/xlink" x="0px" y="0px" viewBox="0 0 20 20" width="20px" height="20px" enable-background="new 0 0 20 20" xml:space="preserve">
<g>
	<g>
		<g>
			<circle fill="#676767" cx="10" cy="10" r="1.5"/>
		</g>
		<g>
			<path fill="#676767" d="M10,15c-5.6,0-10-2.2-10-5s4.4-5,10-5c5.6,0,10,2.2,10,5S15.6,15,10,15L10,15z M10,5.8
				c-5,0-9.2,1.9-9.2,4.2S5,14.2,10,14.2c5,0,9.2-1.9,9.2-4.2S15,5.8,10,5.8L10,5.8z"/>
		</g>
		<g>
			<path fill="#676767" d="M6.6,19.1c-0.5,0-1-0.1-1.4-0.3c-2.5-1.3-2.3-6.2,0.4-11.2c2.2-4,5.4-6.7,7.8-6.7c0.5,0,1,0.1,1.4,0.3
				c2.5,1.3,2.3,6.2-0.4,11.2C12.2,16.3,9,19.1,6.6,19.1L6.6,19.1z M13.4,1.7c-2.1,0-5.1,2.7-7.1,6.3c-2.4,4.4-2.7,9-0.7,10.1
				c0.3,0.2,0.6,0.2,1,0.2c2.1,0,5.1-2.7,7.1-6.3c2.4-4.4,2.7-9,0.7-10.1C14.1,1.8,13.8,1.7,13.4,1.7L13.4,1.7z"/>
		</g>
		<g>
			<path fill="#676767" d="M13.7,19c-2.4,0-5.6-2.6-7.9-6.4C2.8,7.8,2.5,2.9,4.9,1.4C5.3,1.2,5.8,1,6.3,1c2.4,0,5.6,2.6,7.9,6.4
				c1.4,2.2,2.2,4.6,2.4,6.7c0.2,2.2-0.3,3.7-1.5,4.5C14.7,18.8,14.2,19,13.7,19L13.7,19z M6.3,1.8c-0.4,0-0.8,0.1-1.1,0.3
				C3.3,3.3,3.8,7.9,6.4,12.2c2.1,3.5,5.1,6,7.3,6c0.4,0,0.8-0.1,1.1-0.3c0.9-0.5,1.3-1.9,1.1-3.7c-0.2-1.9-1-4.2-2.3-6.4
				C11.5,4.3,8.5,1.8,6.3,1.8L6.3,1.8z"/>
		</g>
	</g>
</g>
</svg>
